<svg class="rich-terminal" viewBox="0 0 1482 928.4" xmlns="http://www.w3.org/2000/svg">
    <!-- Generated with Rich https://www.textualize.io -->
    <style>

    @font-face {
        font-family: "Fira Code";
        src: local("FiraCode-Regular"),
                url("https://cdnjs.cloudflare.com/ajax/libs/firacode/6.2.0/woff2/FiraCode-Regular.woff2") format("woff2"),
                url("https://cdnjs.cloudflare.com/ajax/libs/firacode/6.2.0/woff/FiraCode-Regular.woff") format("woff");
        font-style: normal;
        font-weight: 400;
    }
    @font-face {
        font-family: "Fira Code";
        src: local("FiraCode-Bold"),
                url("https://cdnjs.cloudflare.com/ajax/libs/firacode/6.2.0/woff2/FiraCode-Bold.woff2") format("woff2"),
                url("https://cdnjs.cloudflare.com/ajax/libs/firacode/6.2.0/woff/FiraCode-Bold.woff") format("woff");
        font-style: bold;
        font-weight: 700;
    }

    .terminal-1412319991-matrix {
        font-family: Fira Code, monospace;
        font-size: 20px;
        line-height: 24.4px;
        font-variant-east-asian: full-width;
    }

    .terminal-1412319991-title {
        font-size: 18px;
        font-weight: bold;
        font-family: arial;
    }

    .terminal-1412319991-r1 { fill: #c5c8c6 }
.terminal-1412319991-r2 { fill: #82aaff;font-weight: bold }
.terminal-1412319991-r3 { fill: #00ffff;font-weight: bold }
.terminal-1412319991-r4 { fill: #d6deeb }
.terminal-1412319991-r5 { fill: #ff00ff }
.terminal-1412319991-r6 { fill: #d6deeb;font-weight: bold }
.terminal-1412319991-r7 { fill: #ffa62b;font-weight: bold }
.terminal-1412319991-r8 { fill: #e0e0e0 }
.terminal-1412319991-r9 { fill: #3a3d43 }
    </style>

    <defs>
    <clipPath id="terminal-1412319991-clip-terminal">
      <rect x="0" y="0" width="1463.0" height="877.4" />
    </clipPath>
    <clipPath id="terminal-1412319991-line-0">
    <rect x="0" y="1.5" width="1464" height="24.65"/>
            </clipPath>
<clipPath id="terminal-1412319991-line-1">
    <rect x="0" y="25.9" width="1464" height="24.65"/>
            </clipPath>
<clipPath id="terminal-1412319991-line-2">
    <rect x="0" y="50.3" width="1464" height="24.65"/>
            </clipPath>
<clipPath id="terminal-1412319991-line-3">
    <rect x="0" y="74.7" width="1464" height="24.65"/>
            </clipPath>
<clipPath id="terminal-1412319991-line-4">
    <rect x="0" y="99.1" width="1464" height="24.65"/>
            </clipPath>
<clipPath id="terminal-1412319991-line-5">
    <rect x="0" y="123.5" width="1464" height="24.65"/>
            </clipPath>
<clipPath id="terminal-1412319991-line-6">
    <rect x="0" y="147.9" width="1464" height="24.65"/>
            </clipPath>
<clipPath id="terminal-1412319991-line-7">
    <rect x="0" y="172.3" width="1464" height="24.65"/>
            </clipPath>
<clipPath id="terminal-1412319991-line-8">
    <rect x="0" y="196.7" width="1464" height="24.65"/>
            </clipPath>
<clipPath id="terminal-1412319991-line-9">
    <rect x="0" y="221.1" width="1464" height="24.65"/>
            </clipPath>
<clipPath id="terminal-1412319991-line-10">
    <rect x="0" y="245.5" width="1464" height="24.65"/>
            </clipPath>
<clipPath id="terminal-1412319991-line-11">
    <rect x="0" y="269.9" width="1464" height="24.65"/>
            </clipPath>
<clipPath id="terminal-1412319991-line-12">
    <rect x="0" y="294.3" width="1464" height="24.65"/>
            </clipPath>
<clipPath id="terminal-1412319991-line-13">
    <rect x="0" y="318.7" width="1464" height="24.65"/>
            </clipPath>
<clipPath id="terminal-1412319991-line-14">
    <rect x="0" y="343.1" width="1464" height="24.65"/>
            </clipPath>
<clipPath id="terminal-1412319991-line-15">
    <rect x="0" y="367.5" width="1464" height="24.65"/>
            </clipPath>
<clipPath id="terminal-1412319991-line-16">
    <rect x="0" y="391.9" width="1464" height="24.65"/>
            </clipPath>
<clipPath id="terminal-1412319991-line-17">
    <rect x="0" y="416.3" width="1464" height="24.65"/>
            </clipPath>
<clipPath id="terminal-1412319991-line-18">
    <rect x="0" y="440.7" width="1464" height="24.65"/>
            </clipPath>
<clipPath id="terminal-1412319991-line-19">
    <rect x="0" y="465.1" width="1464" height="24.65"/>
            </clipPath>
<clipPath id="terminal-1412319991-line-20">
    <rect x="0" y="489.5" width="1464" height="24.65"/>
            </clipPath>
<clipPath id="terminal-1412319991-line-21">
    <rect x="0" y="513.9" width="1464" height="24.65"/>
            </clipPath>
<clipPath id="terminal-1412319991-line-22">
    <rect x="0" y="538.3" width="1464" height="24.65"/>
            </clipPath>
<clipPath id="terminal-1412319991-line-23">
    <rect x="0" y="562.7" width="1464" height="24.65"/>
            </clipPath>
<clipPath id="terminal-1412319991-line-24">
    <rect x="0" y="587.1" width="1464" height="24.65"/>
            </clipPath>
<clipPath id="terminal-1412319991-line-25">
    <rect x="0" y="611.5" width="1464" height="24.65"/>
            </clipPath>
<clipPath id="terminal-1412319991-line-26">
    <rect x="0" y="635.9" width="1464" height="24.65"/>
            </clipPath>
<clipPath id="terminal-1412319991-line-27">
    <rect x="0" y="660.3" width="1464" height="24.65"/>
            </clipPath>
<clipPath id="terminal-1412319991-line-28">
    <rect x="0" y="684.7" width="1464" height="24.65"/>
            </clipPath>
<clipPath id="terminal-1412319991-line-29">
    <rect x="0" y="709.1" width="1464" height="24.65"/>
            </clipPath>
<clipPath id="terminal-1412319991-line-30">
    <rect x="0" y="733.5" width="1464" height="24.65"/>
            </clipPath>
<clipPath id="terminal-1412319991-line-31">
    <rect x="0" y="757.9" width="1464" height="24.65"/>
            </clipPath>
<clipPath id="terminal-1412319991-line-32">
    <rect x="0" y="782.3" width="1464" height="24.65"/>
            </clipPath>
<clipPath id="terminal-1412319991-line-33">
    <rect x="0" y="806.7" width="1464" height="24.65"/>
            </clipPath>
<clipPath id="terminal-1412319991-line-34">
    <rect x="0" y="831.1" width="1464" height="24.65"/>
            </clipPath>
    </defs>

    <rect fill="#292929" stroke="rgba(255,255,255,0.35)" stroke-width="1" x="1" y="1" width="1480" height="926.4" rx="8"/><text class="terminal-1412319991-title" fill="#c5c8c6" text-anchor="middle" x="740" y="27">alloy&#160;01-welcome</text>
            <g transform="translate(26,22)">
            <circle cx="0" cy="0" r="7" fill="#ff5f57"/>
            <circle cx="22" cy="0" r="7" fill="#febc2e"/>
            <circle cx="44" cy="0" r="7" fill="#28c840"/>
            </g>
        
    <g transform="translate(9, 41)" clip-path="url(#terminal-1412319991-clip-terminal)">
    <rect fill="#11151c" x="0" y="1.5" width="12.2" height="24.65" shape-rendering="crispEdges"/><rect fill="#11151c" x="12.2" y="1.5" width="12.2" height="24.65" shape-rendering="crispEdges"/><rect fill="#11151c" x="24.4" y="1.5" width="61" height="24.65" shape-rendering="crispEdges"/><rect fill="#11151c" x="85.4" y="1.5" width="12.2" height="24.65" shape-rendering="crispEdges"/><rect fill="#11151c" x="97.6" y="1.5" width="585.6" height="24.65" shape-rendering="crispEdges"/><rect fill="#11151c" x="683.2" y="1.5" width="73.2" height="24.65" shape-rendering="crispEdges"/><rect fill="#11151c" x="756.4" y="1.5" width="585.6" height="24.65" shape-rendering="crispEdges"/><rect fill="#11151c" x="1342" y="1.5" width="12.2" height="24.65" shape-rendering="crispEdges"/><rect fill="#11151c" x="1354.2" y="1.5" width="0" height="24.65" shape-rendering="crispEdges"/><rect fill="#11151c" x="1354.2" y="1.5" width="97.6" height="24.65" shape-rendering="crispEdges"/><rect fill="#11151c" x="1451.8" y="1.5" width="12.2" height="24.65" shape-rendering="crispEdges"/><rect fill="#0b0d10" x="0" y="25.9" width="1464" height="24.65" shape-rendering="crispEdges"/><rect fill="#0b0d10" x="0" y="50.3" width="24.4" height="24.65" shape-rendering="crispEdges"/><rect fill="#0b0d10" x="24.4" y="50.3" width="439.2" height="24.65" shape-rendering="crispEdges"/><rect fill="#0b0d10" x="463.6" y="50.3" width="170.8" height="24.65" shape-rendering="crispEdges"/><rect fill="#0b0d10" x="634.4" y="50.3" width="805.2" height="24.65" shape-rendering="crispEdges"/><rect fill="#0b0d10" x="1439.6" y="50.3" width="24.4" height="24.65" shape-rendering="crispEdges"/><rect fill="#0b0d10" x="0" y="74.7" width="24.4" height="24.65" shape-rendering="crispEdges"/><rect fill="#0b0d10" x="24.4" y="74.7" width="0" height="24.65" shape-rendering="crispEdges"/><rect fill="#0b0d10" x="24.4" y="74.7" width="1415.2" height="24.65" shape-rendering="crispEdges"/><rect fill="#0b0d10" x="1439.6" y="74.7" width="24.4" height="24.65" shape-rendering="crispEdges"/><rect fill="#0b0d10" x="0" y="99.1" width="24.4" height="24.65" shape-rendering="crispEdges"/><rect fill="#0b0d10" x="24.4" y="99.1" width="683.2" height="24.65" shape-rendering="crispEdges"/><rect fill="#0b0d10" x="707.6" y="99.1" width="390.4" height="24.65" shape-rendering="crispEdges"/><rect fill="#0b0d10" x="1098" y="99.1" width="24.4" height="24.65" shape-rendering="crispEdges"/><rect fill="#0b0d10" x="1122.4" y="99.1" width="244" height="24.65" shape-rendering="crispEdges"/><rect fill="#0b0d10" x="1366.4" y="99.1" width="61" height="24.65" shape-rendering="crispEdges"/><rect fill="#0b0d10" x="1427.4" y="99.1" width="12.2" height="24.65" shape-rendering="crispEdges"/><rect fill="#0b0d10" x="1439.6" y="99.1" width="24.4" height="24.65" shape-rendering="crispEdges"/><rect fill="#0b0d10" x="0" y="123.5" width="24.4" height="24.65" shape-rendering="crispEdges"/><rect fill="#0b0d10" x="24.4" y="123.5" width="0" height="24.65" shape-rendering="crispEdges"/><rect fill="#0b0d10" x="24.4" y="123.5" width="1415.2" height="24.65" shape-rendering="crispEdges"/><rect fill="#0b0d10" x="1439.6" y="123.5" width="24.4" height="24.65" shape-rendering="crispEdges"/><rect fill="#0b0d10" x="0" y="147.9" width="24.4" height="24.65" shape-rendering="crispEdges"/><rect fill="#0b0d10" x="24.4" y="147.9" width="134.2" height="24.65" shape-rendering="crispEdges"/><rect fill="#0b0d10" x="158.6" y="147.9" width="1281" height="24.65" shape-rendering="crispEdges"/><rect fill="#0b0d10" x="1439.6" y="147.9" width="24.4" height="24.65" shape-rendering="crispEdges"/><rect fill="#0b0d10" x="0" y="172.3" width="24.4" height="24.65" shape-rendering="crispEdges"/><rect fill="#0b0d10" x="24.4" y="172.3" width="366" height="24.65" shape-rendering="crispEdges"/><rect fill="#0b0d10" x="390.4" y="172.3" width="1049.2" height="24.65" shape-rendering="crispEdges"/><rect fill="#0b0d10" x="1439.6" y="172.3" width="24.4" height="24.65" shape-rendering="crispEdges"/><rect fill="#0b0d10" x="0" y="196.7" width="24.4" height="24.65" shape-rendering="crispEdges"/><rect fill="#0b0d10" x="24.4" y="196.7" width="268.4" height="24.65" shape-rendering="crispEdges"/><rect fill="#0b0d10" x="292.8" y="196.7" width="1146.8" height="24.65" shape-rendering="crispEdges"/><rect fill="#0b0d10" x="1439.6" y="196.7" width="24.4" height="24.65" shape-rendering="crispEdges"/><rect fill="#0b0d10" x="0" y="221.1" width="24.4" height="24.65" shape-rendering="crispEdges"/><rect fill="#0b0d10" x="24.4" y="221.1" width="170.8" height="24.65" shape-rendering="crispEdges"/><rect fill="#0b0d10" x="195.2" y="221.1" width="1244.4" height="24.65" shape-rendering="crispEdges"/><rect fill="#0b0d10" x="1439.6" y="221.1" width="24.4" height="24.65" shape-rendering="crispEdges"/><rect fill="#0b0d10" x="0" y="245.5" width="24.4" height="24.65" shape-rendering="crispEdges"/><rect fill="#0b0d10" x="24.4" y="245.5" width="1415.2" height="24.65" shape-rendering="crispEdges"/><rect fill="#0b0d10" x="1439.6" y="245.5" width="24.4" height="24.65" shape-rendering="crispEdges"/><rect fill="#0b0d10" x="0" y="269.9" width="24.4" height="24.65" shape-rendering="crispEdges"/><rect fill="#0b0d10" x="24.4" y="269.9" width="1415.2" height="24.65" shape-rendering="crispEdges"/><rect fill="#0b0d10" x="1439.6" y="269.9" width="24.4" height="24.65" shape-rendering="crispEdges"/><rect fill="#0b0d10" x="0" y="294.3" width="24.4" height="24.65" shape-rendering="crispEdges"/><rect fill="#0b0d10" x="24.4" y="294.3" width="1415.2" height="24.65" shape-rendering="crispEdges"/><rect fill="#0b0d10" x="1439.6" y="294.3" width="24.4" height="24.65" shape-rendering="crispEdges"/><rect fill="#0b0d10" x="0" y="318.7" width="24.4" height="24.65" shape-rendering="crispEdges"/><rect fill="#0b0d10" x="24.4" y="318.7" width="1415.2" height="24.65" shape-rendering="crispEdges"/><rect fill="#0b0d10" x="1439.6" y="318.7" width="24.4" height="24.65" shape-rendering="crispEdges"/><rect fill="#0b0d10" x="0" y="343.1" width="24.4" height="24.65" shape-rendering="crispEdges"/><rect fill="#0b0d10" x="24.4" y="343.1" width="1415.2" height="24.65" shape-rendering="crispEdges"/><rect fill="#0b0d10" x="1439.6" y="343.1" width="24.4" height="24.65" shape-rendering="crispEdges"/><rect fill="#0b0d10" x="0" y="367.5" width="24.4" height="24.65" shape-rendering="crispEdges"/><rect fill="#0b0d10" x="24.4" y="367.5" width="1415.2" height="24.65" shape-rendering="crispEdges"/><rect fill="#0b0d10" x="1439.6" y="367.5" width="24.4" height="24.65" shape-rendering="crispEdges"/><rect fill="#0b0d10" x="0" y="391.9" width="24.4" height="24.65" shape-rendering="crispEdges"/><rect fill="#0b0d10" x="24.4" y="391.9" width="1415.2" height="24.65" shape-rendering="crispEdges"/><rect fill="#0b0d10" x="1439.6" y="391.9" width="24.4" height="24.65" shape-rendering="crispEdges"/><rect fill="#0b0d10" x="0" y="416.3" width="24.4" height="24.65" shape-rendering="crispEdges"/><rect fill="#0b0d10" x="24.4" y="416.3" width="1415.2" height="24.65" shape-rendering="crispEdges"/><rect fill="#0b0d10" x="1439.6" y="416.3" width="24.4" height="24.65" shape-rendering="crispEdges"/><rect fill="#0b0d10" x="0" y="440.7" width="24.4" height="24.65" shape-rendering="crispEdges"/><rect fill="#0b0d10" x="24.4" y="440.7" width="1415.2" height="24.65" shape-rendering="crispEdges"/><rect fill="#0b0d10" x="1439.6" y="440.7" width="24.4" height="24.65" shape-rendering="crispEdges"/><rect fill="#0b0d10" x="0" y="465.1" width="24.4" height="24.65" shape-rendering="crispEdges"/><rect fill="#0b0d10" x="24.4" y="465.1" width="1415.2" height="24.65" shape-rendering="crispEdges"/><rect fill="#0b0d10" x="1439.6" y="465.1" width="24.4" height="24.65" shape-rendering="crispEdges"/><rect fill="#0b0d10" x="0" y="489.5" width="24.4" height="24.65" shape-rendering="crispEdges"/><rect fill="#0b0d10" x="24.4" y="489.5" width="1415.2" height="24.65" shape-rendering="crispEdges"/><rect fill="#0b0d10" x="1439.6" y="489.5" width="24.4" height="24.65" shape-rendering="crispEdges"/><rect fill="#0b0d10" x="0" y="513.9" width="24.4" height="24.65" shape-rendering="crispEdges"/><rect fill="#0b0d10" x="24.4" y="513.9" width="1415.2" height="24.65" shape-rendering="crispEdges"/><rect fill="#0b0d10" x="1439.6" y="513.9" width="24.4" height="24.65" shape-rendering="crispEdges"/><rect fill="#0b0d10" x="0" y="538.3" width="24.4" height="24.65" shape-rendering="crispEdges"/><rect fill="#0b0d10" x="24.4" y="538.3" width="1415.2" height="24.65" shape-rendering="crispEdges"/><rect fill="#0b0d10" x="1439.6" y="538.3" width="24.4" height="24.65" shape-rendering="crispEdges"/><rect fill="#0b0d10" x="0" y="562.7" width="24.4" height="24.65" shape-rendering="crispEdges"/><rect fill="#0b0d10" x="24.4" y="562.7" width="1415.2" height="24.65" shape-rendering="crispEdges"/><rect fill="#0b0d10" x="1439.6" y="562.7" width="24.4" height="24.65" shape-rendering="crispEdges"/><rect fill="#0b0d10" x="0" y="587.1" width="24.4" height="24.65" shape-rendering="crispEdges"/><rect fill="#0b0d10" x="24.4" y="587.1" width="1415.2" height="24.65" shape-rendering="crispEdges"/><rect fill="#0b0d10" x="1439.6" y="587.1" width="24.4" height="24.65" shape-rendering="crispEdges"/><rect fill="#0b0d10" x="0" y="611.5" width="24.4" height="24.65" shape-rendering="crispEdges"/><rect fill="#0b0d10" x="24.4" y="611.5" width="1415.2" height="24.65" shape-rendering="crispEdges"/><rect fill="#0b0d10" x="1439.6" y="611.5" width="24.4" height="24.65" shape-rendering="crispEdges"/><rect fill="#0b0d10" x="0" y="635.9" width="24.4" height="24.65" shape-rendering="crispEdges"/><rect fill="#0b0d10" x="24.4" y="635.9" width="1415.2" height="24.65" shape-rendering="crispEdges"/><rect fill="#0b0d10" x="1439.6" y="635.9" width="24.4" height="24.65" shape-rendering="crispEdges"/><rect fill="#0b0d10" x="0" y="660.3" width="24.4" height="24.65" shape-rendering="crispEdges"/><rect fill="#0b0d10" x="24.4" y="660.3" width="1415.2" height="24.65" shape-rendering="crispEdges"/><rect fill="#0b0d10" x="1439.6" y="660.3" width="24.4" height="24.65" shape-rendering="crispEdges"/><rect fill="#0b0d10" x="0" y="684.7" width="24.4" height="24.65" shape-rendering="crispEdges"/><rect fill="#0b0d10" x="24.4" y="684.7" width="1415.2" height="24.65" shape-rendering="crispEdges"/><rect fill="#0b0d10" x="1439.6" y="684.7" width="24.4" height="24.65" shape-rendering="crispEdges"/><rect fill="#0b0d10" x="0" y="709.1" width="24.4" height="24.65" shape-rendering="crispEdges"/><rect fill="#0b0d10" x="24.4" y="709.1" width="1415.2" height="24.65" shape-rendering="crispEdges"/><rect fill="#0b0d10" x="1439.6" y="709.1" width="24.4" height="24.65" shape-rendering="crispEdges"/><rect fill="#0b0d10" x="0" y="733.5" width="24.4" height="24.65" shape-rendering="crispEdges"/><rect fill="#0b0d10" x="24.4" y="733.5" width="1415.2" height="24.65" shape-rendering="crispEdges"/><rect fill="#0b0d10" x="1439.6" y="733.5" width="24.4" height="24.65" shape-rendering="crispEdges"/><rect fill="#0b0d10" x="0" y="757.9" width="24.4" height="24.65" shape-rendering="crispEdges"/><rect fill="#0b0d10" x="24.4" y="757.9" width="1415.2" height="24.65" shape-rendering="crispEdges"/><rect fill="#0b0d10" x="1439.6" y="757.9" width="24.4" height="24.65" shape-rendering="crispEdges"/><rect fill="#0b0d10" x="0" y="782.3" width="24.4" height="24.65" shape-rendering="crispEdges"/><rect fill="#0b0d10" x="24.4" y="782.3" width="1415.2" height="24.65" shape-rendering="crispEdges"/><rect fill="#0b0d10" x="1439.6" y="782.3" width="24.4" height="24.65" shape-rendering="crispEdges"/><rect fill="#0b0d10" x="0" y="806.7" width="24.4" height="24.65" shape-rendering="crispEdges"/><rect fill="#0b0d10" x="24.4" y="806.7" width="1415.2" height="24.65" shape-rendering="crispEdges"/><rect fill="#0b0d10" x="1439.6" y="806.7" width="24.4" height="24.65" shape-rendering="crispEdges"/><rect fill="#0b0d10" x="0" y="831.1" width="1464" height="24.65" shape-rendering="crispEdges"/><rect fill="#11151c" x="0" y="855.5" width="36.6" height="24.65" shape-rendering="crispEdges"/><rect fill="#11151c" x="36.6" y="855.5" width="61" height="24.65" shape-rendering="crispEdges"/><rect fill="#11151c" x="97.6" y="855.5" width="36.6" height="24.65" shape-rendering="crispEdges"/><rect fill="#11151c" x="134.2" y="855.5" width="61" height="24.65" shape-rendering="crispEdges"/><rect fill="#11151c" x="195.2" y="855.5" width="48.8" height="24.65" shape-rendering="crispEdges"/><rect fill="#11151c" x="244" y="855.5" width="97.6" height="24.65" shape-rendering="crispEdges"/><rect fill="#11151c" x="341.6" y="855.5" width="976" height="24.65" shape-rendering="crispEdges"/><rect fill="#11151c" x="1317.6" y="855.5" width="12.2" height="24.65" shape-rendering="crispEdges"/><rect fill="#11151c" x="1329.8" y="855.5" width="24.4" height="24.65" shape-rendering="crispEdges"/><rect fill="#11151c" x="1354.2" y="855.5" width="97.6" height="24.65" shape-rendering="crispEdges"/><rect fill="#11151c" x="1451.8" y="855.5" width="12.2" height="24.65" shape-rendering="crispEdges"/>
    <g class="terminal-1412319991-matrix">
    <text class="terminal-1412319991-r2" x="12.2" y="20" textLength="12.2" clip-path="url(#terminal-1412319991-line-0)">⭘</text><text class="terminal-1412319991-r2" x="683.2" y="20" textLength="73.2" clip-path="url(#terminal-1412319991-line-0)">TuiApp</text><text class="terminal-1412319991-r1" x="1464" y="20" textLength="12.2" clip-path="url(#terminal-1412319991-line-0)">
</text><text class="terminal-1412319991-r1" x="1464" y="44.4" textLength="12.2" clip-path="url(#terminal-1412319991-line-1)">
</text><text class="terminal-1412319991-r3" x="24.4" y="68.8" textLength="439.2" clip-path="url(#terminal-1412319991-line-2)">alloy&#160;0.1.dev16+g8592b3d09.d20260502</text><text class="terminal-1412319991-r4" x="463.6" y="68.8" textLength="170.8" clip-path="url(#terminal-1412319991-line-2)">&#160;—&#160;terminal&#160;UI</text><text class="terminal-1412319991-r1" x="1464" y="68.8" textLength="12.2" clip-path="url(#terminal-1412319991-line-2)">
</text><text class="terminal-1412319991-r1" x="1464" y="93.2" textLength="12.2" clip-path="url(#terminal-1412319991-line-3)">
</text><text class="terminal-1412319991-r4" x="24.4" y="117.6" textLength="683.2" clip-path="url(#terminal-1412319991-line-4)">Welcome.&#160;&#160;Phase-3&#160;screens&#160;land&#160;in&#160;subsequent&#160;proposals&#160;(</text><text class="terminal-1412319991-r5" x="707.6" y="117.6" textLength="390.4" clip-path="url(#terminal-1412319991-line-4)">add-tui-dashboard-and-onboarding</text><text class="terminal-1412319991-r4" x="1098" y="117.6" textLength="24.4" clip-path="url(#terminal-1412319991-line-4)">,&#160;</text><text class="terminal-1412319991-r5" x="1122.4" y="117.6" textLength="244" clip-path="url(#terminal-1412319991-line-4)">add-tui-board-picker</text><text class="terminal-1412319991-r4" x="1366.4" y="117.6" textLength="61" clip-path="url(#terminal-1412319991-line-4)">,&#160;…).</text><text class="terminal-1412319991-r1" x="1464" y="117.6" textLength="12.2" clip-path="url(#terminal-1412319991-line-4)">
</text><text class="terminal-1412319991-r1" x="1464" y="142" textLength="12.2" clip-path="url(#terminal-1412319991-line-5)">
</text><text class="terminal-1412319991-r6" x="24.4" y="166.4" textLength="134.2" clip-path="url(#terminal-1412319991-line-6)">Global&#160;keys</text><text class="terminal-1412319991-r1" x="1464" y="166.4" textLength="12.2" clip-path="url(#terminal-1412319991-line-6)">
</text><text class="terminal-1412319991-r4" x="24.4" y="190.8" textLength="366" clip-path="url(#terminal-1412319991-line-7)">&#160;&#160;Ctrl+P&#160;&#160;open&#160;command&#160;palette</text><text class="terminal-1412319991-r1" x="1464" y="190.8" textLength="12.2" clip-path="url(#terminal-1412319991-line-7)">
</text><text class="terminal-1412319991-r4" x="24.4" y="215.2" textLength="268.4" clip-path="url(#terminal-1412319991-line-8)">&#160;&#160;?&#160;&#160;&#160;&#160;&#160;&#160;&#160;help&#160;overlay</text><text class="terminal-1412319991-r1" x="1464" y="215.2" textLength="12.2" clip-path="url(#terminal-1412319991-line-8)">
</text><text class="terminal-1412319991-r4" x="24.4" y="239.6" textLength="170.8" clip-path="url(#terminal-1412319991-line-9)">&#160;&#160;q&#160;&#160;&#160;&#160;&#160;&#160;&#160;quit</text><text class="terminal-1412319991-r1" x="1464" y="239.6" textLength="12.2" clip-path="url(#terminal-1412319991-line-9)">
</text><text class="terminal-1412319991-r1" x="1464" y="264" textLength="12.2" clip-path="url(#terminal-1412319991-line-10)">
</text><text class="terminal-1412319991-r1" x="1464" y="288.4" textLength="12.2" clip-path="url(#terminal-1412319991-line-11)">
</text><text class="terminal-1412319991-r1" x="1464" y="312.8" textLength="12.2" clip-path="url(#terminal-1412319991-line-12)">
</text><text class="terminal-1412319991-r1" x="1464" y="337.2" textLength="12.2" clip-path="url(#terminal-1412319991-line-13)">
</text><text class="terminal-1412319991-r1" x="1464" y="361.6" textLength="12.2" clip-path="url(#terminal-1412319991-line-14)">
</text><text class="terminal-1412319991-r1" x="1464" y="386" textLength="12.2" clip-path="url(#terminal-1412319991-line-15)">
</text><text class="terminal-1412319991-r1" x="1464" y="410.4" textLength="12.2" clip-path="url(#terminal-1412319991-line-16)">
</text><text class="terminal-1412319991-r1" x="1464" y="434.8" textLength="12.2" clip-path="url(#terminal-1412319991-line-17)">
</text><text class="terminal-1412319991-r1" x="1464" y="459.2" textLength="12.2" clip-path="url(#terminal-1412319991-line-18)">
</text><text class="terminal-1412319991-r1" x="1464" y="483.6" textLength="12.2" clip-path="url(#terminal-1412319991-line-19)">
</text><text class="terminal-1412319991-r1" x="1464" y="508" textLength="12.2" clip-path="url(#terminal-1412319991-line-20)">
</text><text class="terminal-1412319991-r1" x="1464" y="532.4" textLength="12.2" clip-path="url(#terminal-1412319991-line-21)">
</text><text class="terminal-1412319991-r1" x="1464" y="556.8" textLength="12.2" clip-path="url(#terminal-1412319991-line-22)">
</text><text class="terminal-1412319991-r1" x="1464" y="581.2" textLength="12.2" clip-path="url(#terminal-1412319991-line-23)">
</text><text class="terminal-1412319991-r1" x="1464" y="605.6" textLength="12.2" clip-path="url(#terminal-1412319991-line-24)">
</text><text class="terminal-1412319991-r1" x="1464" y="630" textLength="12.2" clip-path="url(#terminal-1412319991-line-25)">
</text><text class="terminal-1412319991-r1" x="1464" y="654.4" textLength="12.2" clip-path="url(#terminal-1412319991-line-26)">
</text><text class="terminal-1412319991-r1" x="1464" y="678.8" textLength="12.2" clip-path="url(#terminal-1412319991-line-27)">
</text><text class="terminal-1412319991-r1" x="1464" y="703.2" textLength="12.2" clip-path="url(#terminal-1412319991-line-28)">
</text><text class="terminal-1412319991-r1" x="1464" y="727.6" textLength="12.2" clip-path="url(#terminal-1412319991-line-29)">
</text><text class="terminal-1412319991-r1" x="1464" y="752" textLength="12.2" clip-path="url(#terminal-1412319991-line-30)">
</text><text class="terminal-1412319991-r1" x="1464" y="776.4" textLength="12.2" clip-path="url(#terminal-1412319991-line-31)">
</text><text class="terminal-1412319991-r1" x="1464" y="800.8" textLength="12.2" clip-path="url(#terminal-1412319991-line-32)">
</text><text class="terminal-1412319991-r1" x="1464" y="825.2" textLength="12.2" clip-path="url(#terminal-1412319991-line-33)">
</text><text class="terminal-1412319991-r1" x="1464" y="849.6" textLength="12.2" clip-path="url(#terminal-1412319991-line-34)">
</text><text class="terminal-1412319991-r7" x="0" y="874" textLength="36.6" clip-path="url(#terminal-1412319991-line-35)">&#160;q&#160;</text><text class="terminal-1412319991-r8" x="36.6" y="874" textLength="61" clip-path="url(#terminal-1412319991-line-35)">Quit&#160;</text><text class="terminal-1412319991-r7" x="97.6" y="874" textLength="36.6" clip-path="url(#terminal-1412319991-line-35)">&#160;?&#160;</text><text class="terminal-1412319991-r8" x="134.2" y="874" textLength="61" clip-path="url(#terminal-1412319991-line-35)">Help&#160;</text><text class="terminal-1412319991-r7" x="195.2" y="874" textLength="48.8" clip-path="url(#terminal-1412319991-line-35)">&#160;^p&#160;</text><text class="terminal-1412319991-r8" x="244" y="874" textLength="97.6" clip-path="url(#terminal-1412319991-line-35)">Palette&#160;</text><text class="terminal-1412319991-r9" x="1317.6" y="874" textLength="12.2" clip-path="url(#terminal-1412319991-line-35)">▏</text><text class="terminal-1412319991-r7" x="1329.8" y="874" textLength="24.4" clip-path="url(#terminal-1412319991-line-35)">^p</text><text class="terminal-1412319991-r8" x="1354.2" y="874" textLength="97.6" clip-path="url(#terminal-1412319991-line-35)">&#160;Palette</text>
    </g>
    </g>
</svg>
