<svg class="rich-terminal" viewBox="0 0 1482 928.4" xmlns="http://www.w3.org/2000/svg">
    <!-- Generated with Rich https://www.textualize.io -->
    <style>

    @font-face {
        font-family: "Fira Code";
        src: local("FiraCode-Regular"),
                url("https://cdnjs.cloudflare.com/ajax/libs/firacode/6.2.0/woff2/FiraCode-Regular.woff2") format("woff2"),
                url("https://cdnjs.cloudflare.com/ajax/libs/firacode/6.2.0/woff/FiraCode-Regular.woff") format("woff");
        font-style: normal;
        font-weight: 400;
    }
    @font-face {
        font-family: "Fira Code";
        src: local("FiraCode-Bold"),
                url("https://cdnjs.cloudflare.com/ajax/libs/firacode/6.2.0/woff2/FiraCode-Bold.woff2") format("woff2"),
                url("https://cdnjs.cloudflare.com/ajax/libs/firacode/6.2.0/woff/FiraCode-Bold.woff") format("woff");
        font-style: bold;
        font-weight: 700;
    }

    .terminal-1917667548-matrix {
        font-family: Fira Code, monospace;
        font-size: 20px;
        line-height: 24.4px;
        font-variant-east-asian: full-width;
    }

    .terminal-1917667548-title {
        font-size: 18px;
        font-weight: bold;
        font-family: arial;
    }

    .terminal-1917667548-r1 { fill: #c5c8c6 }
.terminal-1917667548-r2 { fill: #82aaff;font-weight: bold }
.terminal-1917667548-r3 { fill: #0178d4 }
.terminal-1917667548-r4 { fill: #fea62b;font-weight: bold }
.terminal-1917667548-r5 { fill: #00ffff;font-weight: bold }
.terminal-1917667548-r6 { fill: #d6deeb }
.terminal-1917667548-r7 { fill: #9096a0 }
.terminal-1917667548-r8 { fill: #ffa62b;font-weight: bold }
.terminal-1917667548-r9 { fill: #e0e0e0 }
.terminal-1917667548-r10 { fill: #3a3d43 }
    </style>

    <defs>
    <clipPath id="terminal-1917667548-clip-terminal">
      <rect x="0" y="0" width="1463.0" height="877.4" />
    </clipPath>
    <clipPath id="terminal-1917667548-line-0">
    <rect x="0" y="1.5" width="1464" height="24.65"/>
            </clipPath>
<clipPath id="terminal-1917667548-line-1">
    <rect x="0" y="25.9" width="1464" height="24.65"/>
            </clipPath>
<clipPath id="terminal-1917667548-line-2">
    <rect x="0" y="50.3" width="1464" height="24.65"/>
            </clipPath>
<clipPath id="terminal-1917667548-line-3">
    <rect x="0" y="74.7" width="1464" height="24.65"/>
            </clipPath>
<clipPath id="terminal-1917667548-line-4">
    <rect x="0" y="99.1" width="1464" height="24.65"/>
            </clipPath>
<clipPath id="terminal-1917667548-line-5">
    <rect x="0" y="123.5" width="1464" height="24.65"/>
            </clipPath>
<clipPath id="terminal-1917667548-line-6">
    <rect x="0" y="147.9" width="1464" height="24.65"/>
            </clipPath>
<clipPath id="terminal-1917667548-line-7">
    <rect x="0" y="172.3" width="1464" height="24.65"/>
            </clipPath>
<clipPath id="terminal-1917667548-line-8">
    <rect x="0" y="196.7" width="1464" height="24.65"/>
            </clipPath>
<clipPath id="terminal-1917667548-line-9">
    <rect x="0" y="221.1" width="1464" height="24.65"/>
            </clipPath>
<clipPath id="terminal-1917667548-line-10">
    <rect x="0" y="245.5" width="1464" height="24.65"/>
            </clipPath>
<clipPath id="terminal-1917667548-line-11">
    <rect x="0" y="269.9" width="1464" height="24.65"/>
            </clipPath>
<clipPath id="terminal-1917667548-line-12">
    <rect x="0" y="294.3" width="1464" height="24.65"/>
            </clipPath>
<clipPath id="terminal-1917667548-line-13">
    <rect x="0" y="318.7" width="1464" height="24.65"/>
            </clipPath>
<clipPath id="terminal-1917667548-line-14">
    <rect x="0" y="343.1" width="1464" height="24.65"/>
            </clipPath>
<clipPath id="terminal-1917667548-line-15">
    <rect x="0" y="367.5" width="1464" height="24.65"/>
            </clipPath>
<clipPath id="terminal-1917667548-line-16">
    <rect x="0" y="391.9" width="1464" height="24.65"/>
            </clipPath>
<clipPath id="terminal-1917667548-line-17">
    <rect x="0" y="416.3" width="1464" height="24.65"/>
            </clipPath>
<clipPath id="terminal-1917667548-line-18">
    <rect x="0" y="440.7" width="1464" height="24.65"/>
            </clipPath>
<clipPath id="terminal-1917667548-line-19">
    <rect x="0" y="465.1" width="1464" height="24.65"/>
            </clipPath>
<clipPath id="terminal-1917667548-line-20">
    <rect x="0" y="489.5" width="1464" height="24.65"/>
            </clipPath>
<clipPath id="terminal-1917667548-line-21">
    <rect x="0" y="513.9" width="1464" height="24.65"/>
            </clipPath>
<clipPath id="terminal-1917667548-line-22">
    <rect x="0" y="538.3" width="1464" height="24.65"/>
            </clipPath>
<clipPath id="terminal-1917667548-line-23">
    <rect x="0" y="562.7" width="1464" height="24.65"/>
            </clipPath>
<clipPath id="terminal-1917667548-line-24">
    <rect x="0" y="587.1" width="1464" height="24.65"/>
            </clipPath>
<clipPath id="terminal-1917667548-line-25">
    <rect x="0" y="611.5" width="1464" height="24.65"/>
            </clipPath>
<clipPath id="terminal-1917667548-line-26">
    <rect x="0" y="635.9" width="1464" height="24.65"/>
            </clipPath>
<clipPath id="terminal-1917667548-line-27">
    <rect x="0" y="660.3" width="1464" height="24.65"/>
            </clipPath>
<clipPath id="terminal-1917667548-line-28">
    <rect x="0" y="684.7" width="1464" height="24.65"/>
            </clipPath>
<clipPath id="terminal-1917667548-line-29">
    <rect x="0" y="709.1" width="1464" height="24.65"/>
            </clipPath>
<clipPath id="terminal-1917667548-line-30">
    <rect x="0" y="733.5" width="1464" height="24.65"/>
            </clipPath>
<clipPath id="terminal-1917667548-line-31">
    <rect x="0" y="757.9" width="1464" height="24.65"/>
            </clipPath>
<clipPath id="terminal-1917667548-line-32">
    <rect x="0" y="782.3" width="1464" height="24.65"/>
            </clipPath>
<clipPath id="terminal-1917667548-line-33">
    <rect x="0" y="806.7" width="1464" height="24.65"/>
            </clipPath>
<clipPath id="terminal-1917667548-line-34">
    <rect x="0" y="831.1" width="1464" height="24.65"/>
            </clipPath>
    </defs>

    <rect fill="#292929" stroke="rgba(255,255,255,0.35)" stroke-width="1" x="1" y="1" width="1480" height="926.4" rx="8"/><text class="terminal-1917667548-title" fill="#c5c8c6" text-anchor="middle" x="740" y="27">alloy&#160;02-dashboard</text>
            <g transform="translate(26,22)">
            <circle cx="0" cy="0" r="7" fill="#ff5f57"/>
            <circle cx="22" cy="0" r="7" fill="#febc2e"/>
            <circle cx="44" cy="0" r="7" fill="#28c840"/>
            </g>
        
    <g transform="translate(9, 41)" clip-path="url(#terminal-1917667548-clip-terminal)">
    <rect fill="#11151c" x="0" y="1.5" width="12.2" height="24.65" shape-rendering="crispEdges"/><rect fill="#11151c" x="12.2" y="1.5" width="12.2" height="24.65" shape-rendering="crispEdges"/><rect fill="#11151c" x="24.4" y="1.5" width="61" height="24.65" shape-rendering="crispEdges"/><rect fill="#11151c" x="85.4" y="1.5" width="12.2" height="24.65" shape-rendering="crispEdges"/><rect fill="#11151c" x="97.6" y="1.5" width="585.6" height="24.65" shape-rendering="crispEdges"/><rect fill="#11151c" x="683.2" y="1.5" width="73.2" height="24.65" shape-rendering="crispEdges"/><rect fill="#11151c" x="756.4" y="1.5" width="585.6" height="24.65" shape-rendering="crispEdges"/><rect fill="#11151c" x="1342" y="1.5" width="12.2" height="24.65" shape-rendering="crispEdges"/><rect fill="#11151c" x="1354.2" y="1.5" width="0" height="24.65" shape-rendering="crispEdges"/><rect fill="#11151c" x="1354.2" y="1.5" width="97.6" height="24.65" shape-rendering="crispEdges"/><rect fill="#11151c" x="1451.8" y="1.5" width="12.2" height="24.65" shape-rendering="crispEdges"/><rect fill="#0b0d10" x="0" y="25.9" width="12.2" height="24.65" shape-rendering="crispEdges"/><rect fill="#0b0d10" x="12.2" y="25.9" width="1439.6" height="24.65" shape-rendering="crispEdges"/><rect fill="#0b0d10" x="1451.8" y="25.9" width="12.2" height="24.65" shape-rendering="crispEdges"/><rect fill="#0b0d10" x="0" y="50.3" width="12.2" height="24.65" shape-rendering="crispEdges"/><rect fill="#0b0d10" x="12.2" y="50.3" width="12.2" height="24.65" shape-rendering="crispEdges"/><rect fill="#0b0d10" x="24.4" y="50.3" width="73.2" height="24.65" shape-rendering="crispEdges"/><rect fill="#0b0d10" x="97.6" y="50.3" width="97.6" height="24.65" shape-rendering="crispEdges"/><rect fill="#0b0d10" x="195.2" y="50.3" width="158.6" height="24.65" shape-rendering="crispEdges"/><rect fill="#0b0d10" x="353.8" y="50.3" width="1085.8" height="24.65" shape-rendering="crispEdges"/><rect fill="#0b0d10" x="1439.6" y="50.3" width="12.2" height="24.65" shape-rendering="crispEdges"/><rect fill="#0b0d10" x="1451.8" y="50.3" width="12.2" height="24.65" shape-rendering="crispEdges"/><rect fill="#0b0d10" x="0" y="74.7" width="12.2" height="24.65" shape-rendering="crispEdges"/><rect fill="#0b0d10" x="12.2" y="74.7" width="1439.6" height="24.65" shape-rendering="crispEdges"/><rect fill="#0b0d10" x="1451.8" y="74.7" width="12.2" height="24.65" shape-rendering="crispEdges"/><rect fill="#0b0d10" x="0" y="99.1" width="12.2" height="24.65" shape-rendering="crispEdges"/><rect fill="#0b0d10" x="12.2" y="99.1" width="12.2" height="24.65" shape-rendering="crispEdges"/><rect fill="#0b0d10" x="24.4" y="99.1" width="768.6" height="24.65" shape-rendering="crispEdges"/><rect fill="#0b0d10" x="793" y="99.1" width="646.6" height="24.65" shape-rendering="crispEdges"/><rect fill="#0b0d10" x="1439.6" y="99.1" width="12.2" height="24.65" shape-rendering="crispEdges"/><rect fill="#0b0d10" x="1451.8" y="99.1" width="12.2" height="24.65" shape-rendering="crispEdges"/><rect fill="#0b0d10" x="0" y="123.5" width="12.2" height="24.65" shape-rendering="crispEdges"/><rect fill="#0b0d10" x="12.2" y="123.5" width="1439.6" height="24.65" shape-rendering="crispEdges"/><rect fill="#0b0d10" x="1451.8" y="123.5" width="12.2" height="24.65" shape-rendering="crispEdges"/><rect fill="#0b0d10" x="0" y="147.9" width="12.2" height="24.65" shape-rendering="crispEdges"/><rect fill="#0b0d10" x="12.2" y="147.9" width="12.2" height="24.65" shape-rendering="crispEdges"/><rect fill="#0b0d10" x="24.4" y="147.9" width="134.2" height="24.65" shape-rendering="crispEdges"/><rect fill="#0b0d10" x="158.6" y="147.9" width="1281" height="24.65" shape-rendering="crispEdges"/><rect fill="#0b0d10" x="1439.6" y="147.9" width="12.2" height="24.65" shape-rendering="crispEdges"/><rect fill="#0b0d10" x="1451.8" y="147.9" width="12.2" height="24.65" shape-rendering="crispEdges"/><rect fill="#0b0d10" x="0" y="172.3" width="12.2" height="24.65" shape-rendering="crispEdges"/><rect fill="#0b0d10" x="12.2" y="172.3" width="12.2" height="24.65" shape-rendering="crispEdges"/><rect fill="#0b0d10" x="24.4" y="172.3" width="610" height="24.65" shape-rendering="crispEdges"/><rect fill="#0b0d10" x="634.4" y="172.3" width="805.2" height="24.65" shape-rendering="crispEdges"/><rect fill="#0b0d10" x="1439.6" y="172.3" width="12.2" height="24.65" shape-rendering="crispEdges"/><rect fill="#0b0d10" x="1451.8" y="172.3" width="12.2" height="24.65" shape-rendering="crispEdges"/><rect fill="#0b0d10" x="0" y="196.7" width="12.2" height="24.65" shape-rendering="crispEdges"/><rect fill="#0b0d10" x="12.2" y="196.7" width="12.2" height="24.65" shape-rendering="crispEdges"/><rect fill="#0b0d10" x="24.4" y="196.7" width="427" height="24.65" shape-rendering="crispEdges"/><rect fill="#0b0d10" x="451.4" y="196.7" width="988.2" height="24.65" shape-rendering="crispEdges"/><rect fill="#0b0d10" x="1439.6" y="196.7" width="12.2" height="24.65" shape-rendering="crispEdges"/><rect fill="#0b0d10" x="1451.8" y="196.7" width="12.2" height="24.65" shape-rendering="crispEdges"/><rect fill="#0b0d10" x="0" y="221.1" width="12.2" height="24.65" shape-rendering="crispEdges"/><rect fill="#0b0d10" x="12.2" y="221.1" width="12.2" height="24.65" shape-rendering="crispEdges"/><rect fill="#0b0d10" x="24.4" y="221.1" width="732" height="24.65" shape-rendering="crispEdges"/><rect fill="#0b0d10" x="756.4" y="221.1" width="683.2" height="24.65" shape-rendering="crispEdges"/><rect fill="#0b0d10" x="1439.6" y="221.1" width="12.2" height="24.65" shape-rendering="crispEdges"/><rect fill="#0b0d10" x="1451.8" y="221.1" width="12.2" height="24.65" shape-rendering="crispEdges"/><rect fill="#0b0d10" x="0" y="245.5" width="12.2" height="24.65" shape-rendering="crispEdges"/><rect fill="#0b0d10" x="12.2" y="245.5" width="1439.6" height="24.65" shape-rendering="crispEdges"/><rect fill="#0b0d10" x="1451.8" y="245.5" width="12.2" height="24.65" shape-rendering="crispEdges"/><rect fill="#0b0d10" x="0" y="269.9" width="12.2" height="24.65" shape-rendering="crispEdges"/><rect fill="#0b0d10" x="12.2" y="269.9" width="12.2" height="24.65" shape-rendering="crispEdges"/><rect fill="#0b0d10" x="24.4" y="269.9" width="61" height="24.65" shape-rendering="crispEdges"/><rect fill="#0b0d10" x="85.4" y="269.9" width="1354.2" height="24.65" shape-rendering="crispEdges"/><rect fill="#0b0d10" x="1439.6" y="269.9" width="12.2" height="24.65" shape-rendering="crispEdges"/><rect fill="#0b0d10" x="1451.8" y="269.9" width="12.2" height="24.65" shape-rendering="crispEdges"/><rect fill="#0b0d10" x="0" y="294.3" width="12.2" height="24.65" shape-rendering="crispEdges"/><rect fill="#0b0d10" x="12.2" y="294.3" width="12.2" height="24.65" shape-rendering="crispEdges"/><rect fill="#0b0d10" x="24.4" y="294.3" width="890.6" height="24.65" shape-rendering="crispEdges"/><rect fill="#0b0d10" x="915" y="294.3" width="524.6" height="24.65" shape-rendering="crispEdges"/><rect fill="#0b0d10" x="1439.6" y="294.3" width="12.2" height="24.65" shape-rendering="crispEdges"/><rect fill="#0b0d10" x="1451.8" y="294.3" width="12.2" height="24.65" shape-rendering="crispEdges"/><rect fill="#0b0d10" x="0" y="318.7" width="12.2" height="24.65" shape-rendering="crispEdges"/><rect fill="#0b0d10" x="12.2" y="318.7" width="1439.6" height="24.65" shape-rendering="crispEdges"/><rect fill="#0b0d10" x="1451.8" y="318.7" width="12.2" height="24.65" shape-rendering="crispEdges"/><rect fill="#0b0d10" x="0" y="343.1" width="12.2" height="24.65" shape-rendering="crispEdges"/><rect fill="#0b0d10" x="12.2" y="343.1" width="12.2" height="24.65" shape-rendering="crispEdges"/><rect fill="#0b0d10" x="24.4" y="343.1" width="73.2" height="24.65" shape-rendering="crispEdges"/><rect fill="#0b0d10" x="97.6" y="343.1" width="1342" height="24.65" shape-rendering="crispEdges"/><rect fill="#0b0d10" x="1439.6" y="343.1" width="12.2" height="24.65" shape-rendering="crispEdges"/><rect fill="#0b0d10" x="1451.8" y="343.1" width="12.2" height="24.65" shape-rendering="crispEdges"/><rect fill="#0b0d10" x="0" y="367.5" width="12.2" height="24.65" shape-rendering="crispEdges"/><rect fill="#0b0d10" x="12.2" y="367.5" width="12.2" height="24.65" shape-rendering="crispEdges"/><rect fill="#0b0d10" x="24.4" y="367.5" width="634.4" height="24.65" shape-rendering="crispEdges"/><rect fill="#0b0d10" x="658.8" y="367.5" width="780.8" height="24.65" shape-rendering="crispEdges"/><rect fill="#0b0d10" x="1439.6" y="367.5" width="12.2" height="24.65" shape-rendering="crispEdges"/><rect fill="#0b0d10" x="1451.8" y="367.5" width="12.2" height="24.65" shape-rendering="crispEdges"/><rect fill="#0b0d10" x="0" y="391.9" width="12.2" height="24.65" shape-rendering="crispEdges"/><rect fill="#0b0d10" x="12.2" y="391.9" width="12.2" height="24.65" shape-rendering="crispEdges"/><rect fill="#0b0d10" x="24.4" y="391.9" width="597.8" height="24.65" shape-rendering="crispEdges"/><rect fill="#0b0d10" x="622.2" y="391.9" width="817.4" height="24.65" shape-rendering="crispEdges"/><rect fill="#0b0d10" x="1439.6" y="391.9" width="12.2" height="24.65" shape-rendering="crispEdges"/><rect fill="#0b0d10" x="1451.8" y="391.9" width="12.2" height="24.65" shape-rendering="crispEdges"/><rect fill="#0b0d10" x="0" y="416.3" width="12.2" height="24.65" shape-rendering="crispEdges"/><rect fill="#0b0d10" x="12.2" y="416.3" width="1439.6" height="24.65" shape-rendering="crispEdges"/><rect fill="#0b0d10" x="1451.8" y="416.3" width="12.2" height="24.65" shape-rendering="crispEdges"/><rect fill="#0b0d10" x="0" y="440.7" width="12.2" height="24.65" shape-rendering="crispEdges"/><rect fill="#0b0d10" x="12.2" y="440.7" width="12.2" height="24.65" shape-rendering="crispEdges"/><rect fill="#0b0d10" x="24.4" y="440.7" width="183" height="24.65" shape-rendering="crispEdges"/><rect fill="#0b0d10" x="207.4" y="440.7" width="1232.2" height="24.65" shape-rendering="crispEdges"/><rect fill="#0b0d10" x="1439.6" y="440.7" width="12.2" height="24.65" shape-rendering="crispEdges"/><rect fill="#0b0d10" x="1451.8" y="440.7" width="12.2" height="24.65" shape-rendering="crispEdges"/><rect fill="#0b0d10" x="0" y="465.1" width="12.2" height="24.65" shape-rendering="crispEdges"/><rect fill="#0b0d10" x="12.2" y="465.1" width="12.2" height="24.65" shape-rendering="crispEdges"/><rect fill="#0b0d10" x="24.4" y="465.1" width="512.4" height="24.65" shape-rendering="crispEdges"/><rect fill="#0b0d10" x="536.8" y="465.1" width="902.8" height="24.65" shape-rendering="crispEdges"/><rect fill="#0b0d10" x="1439.6" y="465.1" width="12.2" height="24.65" shape-rendering="crispEdges"/><rect fill="#0b0d10" x="1451.8" y="465.1" width="12.2" height="24.65" shape-rendering="crispEdges"/><rect fill="#0b0d10" x="0" y="489.5" width="12.2" height="24.65" shape-rendering="crispEdges"/><rect fill="#0b0d10" x="12.2" y="489.5" width="12.2" height="24.65" shape-rendering="crispEdges"/><rect fill="#0b0d10" x="24.4" y="489.5" width="646.6" height="24.65" shape-rendering="crispEdges"/><rect fill="#0b0d10" x="671" y="489.5" width="768.6" height="24.65" shape-rendering="crispEdges"/><rect fill="#0b0d10" x="1439.6" y="489.5" width="12.2" height="24.65" shape-rendering="crispEdges"/><rect fill="#0b0d10" x="1451.8" y="489.5" width="12.2" height="24.65" shape-rendering="crispEdges"/><rect fill="#0b0d10" x="0" y="513.9" width="12.2" height="24.65" shape-rendering="crispEdges"/><rect fill="#0b0d10" x="12.2" y="513.9" width="12.2" height="24.65" shape-rendering="crispEdges"/><rect fill="#0b0d10" x="24.4" y="513.9" width="427" height="24.65" shape-rendering="crispEdges"/><rect fill="#0b0d10" x="451.4" y="513.9" width="988.2" height="24.65" shape-rendering="crispEdges"/><rect fill="#0b0d10" x="1439.6" y="513.9" width="12.2" height="24.65" shape-rendering="crispEdges"/><rect fill="#0b0d10" x="1451.8" y="513.9" width="12.2" height="24.65" shape-rendering="crispEdges"/><rect fill="#0b0d10" x="0" y="538.3" width="12.2" height="24.65" shape-rendering="crispEdges"/><rect fill="#0b0d10" x="12.2" y="538.3" width="1439.6" height="24.65" shape-rendering="crispEdges"/><rect fill="#0b0d10" x="1451.8" y="538.3" width="12.2" height="24.65" shape-rendering="crispEdges"/><rect fill="#0b0d10" x="0" y="562.7" width="12.2" height="24.65" shape-rendering="crispEdges"/><rect fill="#0b0d10" x="12.2" y="562.7" width="12.2" height="24.65" shape-rendering="crispEdges"/><rect fill="#0b0d10" x="24.4" y="562.7" width="939.4" height="24.65" shape-rendering="crispEdges"/><rect fill="#0b0d10" x="963.8" y="562.7" width="475.8" height="24.65" shape-rendering="crispEdges"/><rect fill="#0b0d10" x="1439.6" y="562.7" width="12.2" height="24.65" shape-rendering="crispEdges"/><rect fill="#0b0d10" x="1451.8" y="562.7" width="12.2" height="24.65" shape-rendering="crispEdges"/><rect fill="#0b0d10" x="0" y="587.1" width="12.2" height="24.65" shape-rendering="crispEdges"/><rect fill="#0b0d10" x="12.2" y="587.1" width="1439.6" height="24.65" shape-rendering="crispEdges"/><rect fill="#0b0d10" x="1451.8" y="587.1" width="12.2" height="24.65" shape-rendering="crispEdges"/><rect fill="#0b0d10" x="0" y="611.5" width="12.2" height="24.65" shape-rendering="crispEdges"/><rect fill="#0b0d10" x="12.2" y="611.5" width="1439.6" height="24.65" shape-rendering="crispEdges"/><rect fill="#0b0d10" x="1451.8" y="611.5" width="12.2" height="24.65" shape-rendering="crispEdges"/><rect fill="#0b0d10" x="0" y="635.9" width="12.2" height="24.65" shape-rendering="crispEdges"/><rect fill="#0b0d10" x="12.2" y="635.9" width="1439.6" height="24.65" shape-rendering="crispEdges"/><rect fill="#0b0d10" x="1451.8" y="635.9" width="12.2" height="24.65" shape-rendering="crispEdges"/><rect fill="#0b0d10" x="0" y="660.3" width="12.2" height="24.65" shape-rendering="crispEdges"/><rect fill="#0b0d10" x="12.2" y="660.3" width="1439.6" height="24.65" shape-rendering="crispEdges"/><rect fill="#0b0d10" x="1451.8" y="660.3" width="12.2" height="24.65" shape-rendering="crispEdges"/><rect fill="#0b0d10" x="0" y="684.7" width="12.2" height="24.65" shape-rendering="crispEdges"/><rect fill="#0b0d10" x="12.2" y="684.7" width="1439.6" height="24.65" shape-rendering="crispEdges"/><rect fill="#0b0d10" x="1451.8" y="684.7" width="12.2" height="24.65" shape-rendering="crispEdges"/><rect fill="#0b0d10" x="0" y="709.1" width="12.2" height="24.65" shape-rendering="crispEdges"/><rect fill="#0b0d10" x="12.2" y="709.1" width="1439.6" height="24.65" shape-rendering="crispEdges"/><rect fill="#0b0d10" x="1451.8" y="709.1" width="12.2" height="24.65" shape-rendering="crispEdges"/><rect fill="#0b0d10" x="0" y="733.5" width="12.2" height="24.65" shape-rendering="crispEdges"/><rect fill="#0b0d10" x="12.2" y="733.5" width="1439.6" height="24.65" shape-rendering="crispEdges"/><rect fill="#0b0d10" x="1451.8" y="733.5" width="12.2" height="24.65" shape-rendering="crispEdges"/><rect fill="#0b0d10" x="0" y="757.9" width="12.2" height="24.65" shape-rendering="crispEdges"/><rect fill="#0b0d10" x="12.2" y="757.9" width="1439.6" height="24.65" shape-rendering="crispEdges"/><rect fill="#0b0d10" x="1451.8" y="757.9" width="12.2" height="24.65" shape-rendering="crispEdges"/><rect fill="#0b0d10" x="0" y="782.3" width="12.2" height="24.65" shape-rendering="crispEdges"/><rect fill="#0b0d10" x="12.2" y="782.3" width="1439.6" height="24.65" shape-rendering="crispEdges"/><rect fill="#0b0d10" x="1451.8" y="782.3" width="12.2" height="24.65" shape-rendering="crispEdges"/><rect fill="#0b0d10" x="0" y="806.7" width="12.2" height="24.65" shape-rendering="crispEdges"/><rect fill="#0b0d10" x="12.2" y="806.7" width="1439.6" height="24.65" shape-rendering="crispEdges"/><rect fill="#0b0d10" x="1451.8" y="806.7" width="12.2" height="24.65" shape-rendering="crispEdges"/><rect fill="#0b0d10" x="0" y="831.1" width="12.2" height="24.65" shape-rendering="crispEdges"/><rect fill="#0b0d10" x="12.2" y="831.1" width="1439.6" height="24.65" shape-rendering="crispEdges"/><rect fill="#0b0d10" x="1451.8" y="831.1" width="12.2" height="24.65" shape-rendering="crispEdges"/><rect fill="#11151c" x="0" y="855.5" width="36.6" height="24.65" shape-rendering="crispEdges"/><rect fill="#11151c" x="36.6" y="855.5" width="73.2" height="24.65" shape-rendering="crispEdges"/><rect fill="#11151c" x="109.8" y="855.5" width="36.6" height="24.65" shape-rendering="crispEdges"/><rect fill="#11151c" x="146.4" y="855.5" width="73.2" height="24.65" shape-rendering="crispEdges"/><rect fill="#11151c" x="219.6" y="855.5" width="36.6" height="24.65" shape-rendering="crispEdges"/><rect fill="#11151c" x="256.2" y="855.5" width="73.2" height="24.65" shape-rendering="crispEdges"/><rect fill="#11151c" x="329.4" y="855.5" width="36.6" height="24.65" shape-rendering="crispEdges"/><rect fill="#11151c" x="366" y="855.5" width="48.8" height="24.65" shape-rendering="crispEdges"/><rect fill="#11151c" x="414.8" y="855.5" width="36.6" height="24.65" shape-rendering="crispEdges"/><rect fill="#11151c" x="451.4" y="855.5" width="85.4" height="24.65" shape-rendering="crispEdges"/><rect fill="#11151c" x="536.8" y="855.5" width="36.6" height="24.65" shape-rendering="crispEdges"/><rect fill="#11151c" x="573.4" y="855.5" width="85.4" height="24.65" shape-rendering="crispEdges"/><rect fill="#11151c" x="658.8" y="855.5" width="48.8" height="24.65" shape-rendering="crispEdges"/><rect fill="#11151c" x="707.6" y="855.5" width="97.6" height="24.65" shape-rendering="crispEdges"/><rect fill="#11151c" x="805.2" y="855.5" width="36.6" height="24.65" shape-rendering="crispEdges"/><rect fill="#11151c" x="841.8" y="855.5" width="61" height="24.65" shape-rendering="crispEdges"/><rect fill="#11151c" x="902.8" y="855.5" width="414.8" height="24.65" shape-rendering="crispEdges"/><rect fill="#11151c" x="1317.6" y="855.5" width="12.2" height="24.65" shape-rendering="crispEdges"/><rect fill="#11151c" x="1329.8" y="855.5" width="24.4" height="24.65" shape-rendering="crispEdges"/><rect fill="#11151c" x="1354.2" y="855.5" width="97.6" height="24.65" shape-rendering="crispEdges"/><rect fill="#11151c" x="1451.8" y="855.5" width="12.2" height="24.65" shape-rendering="crispEdges"/>
    <g class="terminal-1917667548-matrix">
    <text class="terminal-1917667548-r2" x="12.2" y="20" textLength="12.2" clip-path="url(#terminal-1917667548-line-0)">⭘</text><text class="terminal-1917667548-r2" x="683.2" y="20" textLength="73.2" clip-path="url(#terminal-1917667548-line-0)">TuiApp</text><text class="terminal-1917667548-r1" x="1464" y="20" textLength="12.2" clip-path="url(#terminal-1917667548-line-0)">
</text><text class="terminal-1917667548-r3" x="12.2" y="44.4" textLength="1439.6" clip-path="url(#terminal-1917667548-line-1)">──────────────────────────────────────────────────────────────────────────────────────────────────────────────────────</text><text class="terminal-1917667548-r1" x="1464" y="44.4" textLength="12.2" clip-path="url(#terminal-1917667548-line-1)">
</text><text class="terminal-1917667548-r4" x="24.4" y="68.8" textLength="73.2" clip-path="url(#terminal-1917667548-line-2)">blinky</text><text class="terminal-1917667548-r4" x="97.6" y="68.8" textLength="97.6" clip-path="url(#terminal-1917667548-line-2)">&#160;&#160;board=</text><text class="terminal-1917667548-r5" x="195.2" y="68.8" textLength="158.6" clip-path="url(#terminal-1917667548-line-2)">nucleo_g071rb</text><text class="terminal-1917667548-r1" x="1464" y="68.8" textLength="12.2" clip-path="url(#terminal-1917667548-line-2)">
</text><text class="terminal-1917667548-r3" x="12.2" y="93.2" textLength="1439.6" clip-path="url(#terminal-1917667548-line-3)">──────────────────────────────────────────────────────────────────────────────────────────────────────────────────────</text><text class="terminal-1917667548-r1" x="1464" y="93.2" textLength="12.2" clip-path="url(#terminal-1917667548-line-3)">
</text><text class="terminal-1917667548-r6" x="24.4" y="117.6" textLength="768.6" clip-path="url(#terminal-1917667548-line-4)">&#160;&#160;✓&#160;arm-none-eabi-gcc&#160;14.2.1&#160;&#160;✓&#160;cmake&#160;3.27.0&#160;&#160;✓&#160;probe-rs&#160;0.24.0</text><text class="terminal-1917667548-r1" x="1464" y="117.6" textLength="12.2" clip-path="url(#terminal-1917667548-line-4)">
</text><text class="terminal-1917667548-r3" x="12.2" y="142" textLength="1439.6" clip-path="url(#terminal-1917667548-line-5)">──────────────────────────────────────────────────────────────────────────────────────────────────────────────────────</text><text class="terminal-1917667548-r1" x="1464" y="142" textLength="12.2" clip-path="url(#terminal-1917667548-line-5)">
</text><text class="terminal-1917667548-r4" x="24.4" y="166.4" textLength="134.2" clip-path="url(#terminal-1917667548-line-6)">Peripherals</text><text class="terminal-1917667548-r1" x="1464" y="166.4" textLength="12.2" clip-path="url(#terminal-1917667548-line-6)">
</text><text class="terminal-1917667548-r6" x="24.4" y="190.8" textLength="610" clip-path="url(#terminal-1917667548-line-7)">&#160;&#160;✓&#160;uart&#160;&#160;&#160;&#160;console&#160;&#160;&#160;&#160;&#160;&#160;&#160;&#160;(USART2)&#160;&#160;tx=PA2&#160;rx=PA3</text><text class="terminal-1917667548-r1" x="1464" y="190.8" textLength="12.2" clip-path="url(#terminal-1917667548-line-7)">
</text><text class="terminal-1917667548-r6" x="24.4" y="215.2" textLength="427" clip-path="url(#terminal-1917667548-line-8)">&#160;&#160;✓&#160;gpio&#160;&#160;&#160;&#160;led&#160;&#160;&#160;&#160;&#160;&#160;&#160;&#160;&#160;&#160;&#160;&#160;&#160;pin=PA5</text><text class="terminal-1917667548-r1" x="1464" y="215.2" textLength="12.2" clip-path="url(#terminal-1917667548-line-8)">
</text><text class="terminal-1917667548-r6" x="24.4" y="239.6" textLength="732" clip-path="url(#terminal-1917667548-line-9)">&#160;&#160;✓&#160;spi&#160;&#160;&#160;&#160;&#160;flash&#160;&#160;&#160;&#160;&#160;&#160;&#160;&#160;&#160;&#160;(SPI1)&#160;&#160;sck=PA5&#160;miso=PA6&#160;mosi=PA7</text><text class="terminal-1917667548-r1" x="1464" y="239.6" textLength="12.2" clip-path="url(#terminal-1917667548-line-9)">
</text><text class="terminal-1917667548-r3" x="12.2" y="264" textLength="1439.6" clip-path="url(#terminal-1917667548-line-10)">──────────────────────────────────────────────────────────────────────────────────────────────────────────────────────</text><text class="terminal-1917667548-r1" x="1464" y="264" textLength="12.2" clip-path="url(#terminal-1917667548-line-10)">
</text><text class="terminal-1917667548-r4" x="24.4" y="288.4" textLength="61" clip-path="url(#terminal-1917667548-line-11)">Build</text><text class="terminal-1917667548-r1" x="1464" y="288.4" textLength="12.2" clip-path="url(#terminal-1917667548-line-11)">
</text><text class="terminal-1917667548-r6" x="24.4" y="312.8" textLength="890.6" clip-path="url(#terminal-1917667548-line-12)">&#160;&#160;✓&#160;profile=release&#160;&#160;elf=.alloy/build/blinky.elf&#160;&#160;ts=2026-05-02T18:00:00Z</text><text class="terminal-1917667548-r1" x="1464" y="312.8" textLength="12.2" clip-path="url(#terminal-1917667548-line-12)">
</text><text class="terminal-1917667548-r3" x="12.2" y="337.2" textLength="1439.6" clip-path="url(#terminal-1917667548-line-13)">──────────────────────────────────────────────────────────────────────────────────────────────────────────────────────</text><text class="terminal-1917667548-r1" x="1464" y="337.2" textLength="12.2" clip-path="url(#terminal-1917667548-line-13)">
</text><text class="terminal-1917667548-r4" x="24.4" y="361.6" textLength="73.2" clip-path="url(#terminal-1917667548-line-14)">Memory</text><text class="terminal-1917667548-r1" x="1464" y="361.6" textLength="12.2" clip-path="url(#terminal-1917667548-line-14)">
</text><text class="terminal-1917667548-r6" x="24.4" y="386" textLength="634.4" clip-path="url(#terminal-1917667548-line-15)">&#160;&#160;FLASH&#160;&#160;[██░░░░░░░░░░░░░░░░░░]&#160;18.0/128.0&#160;KiB&#160;(14%)</text><text class="terminal-1917667548-r1" x="1464" y="386" textLength="12.2" clip-path="url(#terminal-1917667548-line-15)">
</text><text class="terminal-1917667548-r6" x="24.4" y="410.4" textLength="597.8" clip-path="url(#terminal-1917667548-line-16)">&#160;&#160;RAM&#160;&#160;&#160;&#160;[█░░░░░░░░░░░░░░░░░░░]&#160;2.0/36.0&#160;KiB&#160;(6%)</text><text class="terminal-1917667548-r1" x="1464" y="410.4" textLength="12.2" clip-path="url(#terminal-1917667548-line-16)">
</text><text class="terminal-1917667548-r3" x="12.2" y="434.8" textLength="1439.6" clip-path="url(#terminal-1917667548-line-17)">──────────────────────────────────────────────────────────────────────────────────────────────────────────────────────</text><text class="terminal-1917667548-r1" x="1464" y="434.8" textLength="12.2" clip-path="url(#terminal-1917667548-line-17)">
</text><text class="terminal-1917667548-r4" x="24.4" y="459.2" textLength="183" clip-path="url(#terminal-1917667548-line-18)">Recent&#160;activity</text><text class="terminal-1917667548-r1" x="1464" y="459.2" textLength="12.2" clip-path="url(#terminal-1917667548-line-18)">
</text><text class="terminal-1917667548-r6" x="24.4" y="483.6" textLength="512.4" clip-path="url(#terminal-1917667548-line-19)">&#160;&#160;2026-05-02T17:55:00Z&#160;&#160;alloy&#160;add&#160;gpio&#160;led</text><text class="terminal-1917667548-r1" x="1464" y="483.6" textLength="12.2" clip-path="url(#terminal-1917667548-line-19)">
</text><text class="terminal-1917667548-r6" x="24.4" y="508" textLength="646.6" clip-path="url(#terminal-1917667548-line-20)">&#160;&#160;2026-05-02T17:58:00Z&#160;&#160;alloy&#160;build&#160;--profile&#160;release</text><text class="terminal-1917667548-r1" x="1464" y="508" textLength="12.2" clip-path="url(#terminal-1917667548-line-20)">
</text><text class="terminal-1917667548-r6" x="24.4" y="532.4" textLength="427" clip-path="url(#terminal-1917667548-line-21)">&#160;&#160;2026-05-02T18:00:00Z&#160;&#160;alloy&#160;flash</text><text class="terminal-1917667548-r1" x="1464" y="532.4" textLength="12.2" clip-path="url(#terminal-1917667548-line-21)">
</text><text class="terminal-1917667548-r3" x="12.2" y="556.8" textLength="1439.6" clip-path="url(#terminal-1917667548-line-22)">──────────────────────────────────────────────────────────────────────────────────────────────────────────────────────</text><text class="terminal-1917667548-r1" x="1464" y="556.8" textLength="12.2" clip-path="url(#terminal-1917667548-line-22)">
</text><text class="terminal-1917667548-r7" x="24.4" y="581.2" textLength="939.4" clip-path="url(#terminal-1917667548-line-23)">Hotkeys:&#160;b&#160;build,&#160;f&#160;flash,&#160;d&#160;debug,&#160;a&#160;add,&#160;c&#160;clocks,&#160;m&#160;memory,&#160;Ctrl+P&#160;palette</text><text class="terminal-1917667548-r1" x="1464" y="581.2" textLength="12.2" clip-path="url(#terminal-1917667548-line-23)">
</text><text class="terminal-1917667548-r1" x="1464" y="605.6" textLength="12.2" clip-path="url(#terminal-1917667548-line-24)">
</text><text class="terminal-1917667548-r1" x="1464" y="630" textLength="12.2" clip-path="url(#terminal-1917667548-line-25)">
</text><text class="terminal-1917667548-r1" x="1464" y="654.4" textLength="12.2" clip-path="url(#terminal-1917667548-line-26)">
</text><text class="terminal-1917667548-r1" x="1464" y="678.8" textLength="12.2" clip-path="url(#terminal-1917667548-line-27)">
</text><text class="terminal-1917667548-r1" x="1464" y="703.2" textLength="12.2" clip-path="url(#terminal-1917667548-line-28)">
</text><text class="terminal-1917667548-r1" x="1464" y="727.6" textLength="12.2" clip-path="url(#terminal-1917667548-line-29)">
</text><text class="terminal-1917667548-r1" x="1464" y="752" textLength="12.2" clip-path="url(#terminal-1917667548-line-30)">
</text><text class="terminal-1917667548-r1" x="1464" y="776.4" textLength="12.2" clip-path="url(#terminal-1917667548-line-31)">
</text><text class="terminal-1917667548-r1" x="1464" y="800.8" textLength="12.2" clip-path="url(#terminal-1917667548-line-32)">
</text><text class="terminal-1917667548-r1" x="1464" y="825.2" textLength="12.2" clip-path="url(#terminal-1917667548-line-33)">
</text><text class="terminal-1917667548-r1" x="1464" y="849.6" textLength="12.2" clip-path="url(#terminal-1917667548-line-34)">
</text><text class="terminal-1917667548-r8" x="0" y="874" textLength="36.6" clip-path="url(#terminal-1917667548-line-35)">&#160;b&#160;</text><text class="terminal-1917667548-r9" x="36.6" y="874" textLength="73.2" clip-path="url(#terminal-1917667548-line-35)">Build&#160;</text><text class="terminal-1917667548-r8" x="109.8" y="874" textLength="36.6" clip-path="url(#terminal-1917667548-line-35)">&#160;f&#160;</text><text class="terminal-1917667548-r9" x="146.4" y="874" textLength="73.2" clip-path="url(#terminal-1917667548-line-35)">Flash&#160;</text><text class="terminal-1917667548-r8" x="219.6" y="874" textLength="36.6" clip-path="url(#terminal-1917667548-line-35)">&#160;d&#160;</text><text class="terminal-1917667548-r9" x="256.2" y="874" textLength="73.2" clip-path="url(#terminal-1917667548-line-35)">Debug&#160;</text><text class="terminal-1917667548-r8" x="329.4" y="874" textLength="36.6" clip-path="url(#terminal-1917667548-line-35)">&#160;a&#160;</text><text class="terminal-1917667548-r9" x="366" y="874" textLength="48.8" clip-path="url(#terminal-1917667548-line-35)">Add&#160;</text><text class="terminal-1917667548-r8" x="414.8" y="874" textLength="36.6" clip-path="url(#terminal-1917667548-line-35)">&#160;c&#160;</text><text class="terminal-1917667548-r9" x="451.4" y="874" textLength="85.4" clip-path="url(#terminal-1917667548-line-35)">Clocks&#160;</text><text class="terminal-1917667548-r8" x="536.8" y="874" textLength="36.6" clip-path="url(#terminal-1917667548-line-35)">&#160;m&#160;</text><text class="terminal-1917667548-r9" x="573.4" y="874" textLength="85.4" clip-path="url(#terminal-1917667548-line-35)">Memory&#160;</text><text class="terminal-1917667548-r8" x="658.8" y="874" textLength="48.8" clip-path="url(#terminal-1917667548-line-35)">&#160;^p&#160;</text><text class="terminal-1917667548-r9" x="707.6" y="874" textLength="97.6" clip-path="url(#terminal-1917667548-line-35)">Palette&#160;</text><text class="terminal-1917667548-r8" x="805.2" y="874" textLength="36.6" clip-path="url(#terminal-1917667548-line-35)">&#160;q&#160;</text><text class="terminal-1917667548-r9" x="841.8" y="874" textLength="61" clip-path="url(#terminal-1917667548-line-35)">Quit&#160;</text><text class="terminal-1917667548-r10" x="1317.6" y="874" textLength="12.2" clip-path="url(#terminal-1917667548-line-35)">▏</text><text class="terminal-1917667548-r8" x="1329.8" y="874" textLength="24.4" clip-path="url(#terminal-1917667548-line-35)">^p</text><text class="terminal-1917667548-r9" x="1354.2" y="874" textLength="97.6" clip-path="url(#terminal-1917667548-line-35)">&#160;Palette</text>
    </g>
    </g>
</svg>
