<svg class="rich-terminal" viewBox="0 0 1482 928.4" xmlns="http://www.w3.org/2000/svg">
    <!-- Generated with Rich https://www.textualize.io -->
    <style>

    @font-face {
        font-family: "Fira Code";
        src: local("FiraCode-Regular"),
                url("https://cdnjs.cloudflare.com/ajax/libs/firacode/6.2.0/woff2/FiraCode-Regular.woff2") format("woff2"),
                url("https://cdnjs.cloudflare.com/ajax/libs/firacode/6.2.0/woff/FiraCode-Regular.woff") format("woff");
        font-style: normal;
        font-weight: 400;
    }
    @font-face {
        font-family: "Fira Code";
        src: local("FiraCode-Bold"),
                url("https://cdnjs.cloudflare.com/ajax/libs/firacode/6.2.0/woff2/FiraCode-Bold.woff2") format("woff2"),
                url("https://cdnjs.cloudflare.com/ajax/libs/firacode/6.2.0/woff/FiraCode-Bold.woff") format("woff");
        font-style: bold;
        font-weight: 700;
    }

    .terminal-822626508-matrix {
        font-family: Fira Code, monospace;
        font-size: 20px;
        line-height: 24.4px;
        font-variant-east-asian: full-width;
    }

    .terminal-822626508-title {
        font-size: 18px;
        font-weight: bold;
        font-family: arial;
    }

    .terminal-822626508-r1 { fill: #c5c8c6 }
.terminal-822626508-r2 { fill: #82aaff;font-weight: bold }
.terminal-822626508-r3 { fill: #d6deeb;font-weight: bold }
.terminal-822626508-r4 { fill: #d6deeb }
.terminal-822626508-r5 { fill: #ff00ff }
.terminal-822626508-r6 { fill: #ffa62b;font-weight: bold }
.terminal-822626508-r7 { fill: #e0e0e0 }
.terminal-822626508-r8 { fill: #3a3d43 }
    </style>

    <defs>
    <clipPath id="terminal-822626508-clip-terminal">
      <rect x="0" y="0" width="1463.0" height="877.4" />
    </clipPath>
    <clipPath id="terminal-822626508-line-0">
    <rect x="0" y="1.5" width="1464" height="24.65"/>
            </clipPath>
<clipPath id="terminal-822626508-line-1">
    <rect x="0" y="25.9" width="1464" height="24.65"/>
            </clipPath>
<clipPath id="terminal-822626508-line-2">
    <rect x="0" y="50.3" width="1464" height="24.65"/>
            </clipPath>
<clipPath id="terminal-822626508-line-3">
    <rect x="0" y="74.7" width="1464" height="24.65"/>
            </clipPath>
<clipPath id="terminal-822626508-line-4">
    <rect x="0" y="99.1" width="1464" height="24.65"/>
            </clipPath>
<clipPath id="terminal-822626508-line-5">
    <rect x="0" y="123.5" width="1464" height="24.65"/>
            </clipPath>
<clipPath id="terminal-822626508-line-6">
    <rect x="0" y="147.9" width="1464" height="24.65"/>
            </clipPath>
<clipPath id="terminal-822626508-line-7">
    <rect x="0" y="172.3" width="1464" height="24.65"/>
            </clipPath>
<clipPath id="terminal-822626508-line-8">
    <rect x="0" y="196.7" width="1464" height="24.65"/>
            </clipPath>
<clipPath id="terminal-822626508-line-9">
    <rect x="0" y="221.1" width="1464" height="24.65"/>
            </clipPath>
<clipPath id="terminal-822626508-line-10">
    <rect x="0" y="245.5" width="1464" height="24.65"/>
            </clipPath>
<clipPath id="terminal-822626508-line-11">
    <rect x="0" y="269.9" width="1464" height="24.65"/>
            </clipPath>
<clipPath id="terminal-822626508-line-12">
    <rect x="0" y="294.3" width="1464" height="24.65"/>
            </clipPath>
<clipPath id="terminal-822626508-line-13">
    <rect x="0" y="318.7" width="1464" height="24.65"/>
            </clipPath>
<clipPath id="terminal-822626508-line-14">
    <rect x="0" y="343.1" width="1464" height="24.65"/>
            </clipPath>
<clipPath id="terminal-822626508-line-15">
    <rect x="0" y="367.5" width="1464" height="24.65"/>
            </clipPath>
<clipPath id="terminal-822626508-line-16">
    <rect x="0" y="391.9" width="1464" height="24.65"/>
            </clipPath>
<clipPath id="terminal-822626508-line-17">
    <rect x="0" y="416.3" width="1464" height="24.65"/>
            </clipPath>
<clipPath id="terminal-822626508-line-18">
    <rect x="0" y="440.7" width="1464" height="24.65"/>
            </clipPath>
<clipPath id="terminal-822626508-line-19">
    <rect x="0" y="465.1" width="1464" height="24.65"/>
            </clipPath>
<clipPath id="terminal-822626508-line-20">
    <rect x="0" y="489.5" width="1464" height="24.65"/>
            </clipPath>
<clipPath id="terminal-822626508-line-21">
    <rect x="0" y="513.9" width="1464" height="24.65"/>
            </clipPath>
<clipPath id="terminal-822626508-line-22">
    <rect x="0" y="538.3" width="1464" height="24.65"/>
            </clipPath>
<clipPath id="terminal-822626508-line-23">
    <rect x="0" y="562.7" width="1464" height="24.65"/>
            </clipPath>
<clipPath id="terminal-822626508-line-24">
    <rect x="0" y="587.1" width="1464" height="24.65"/>
            </clipPath>
<clipPath id="terminal-822626508-line-25">
    <rect x="0" y="611.5" width="1464" height="24.65"/>
            </clipPath>
<clipPath id="terminal-822626508-line-26">
    <rect x="0" y="635.9" width="1464" height="24.65"/>
            </clipPath>
<clipPath id="terminal-822626508-line-27">
    <rect x="0" y="660.3" width="1464" height="24.65"/>
            </clipPath>
<clipPath id="terminal-822626508-line-28">
    <rect x="0" y="684.7" width="1464" height="24.65"/>
            </clipPath>
<clipPath id="terminal-822626508-line-29">
    <rect x="0" y="709.1" width="1464" height="24.65"/>
            </clipPath>
<clipPath id="terminal-822626508-line-30">
    <rect x="0" y="733.5" width="1464" height="24.65"/>
            </clipPath>
<clipPath id="terminal-822626508-line-31">
    <rect x="0" y="757.9" width="1464" height="24.65"/>
            </clipPath>
<clipPath id="terminal-822626508-line-32">
    <rect x="0" y="782.3" width="1464" height="24.65"/>
            </clipPath>
<clipPath id="terminal-822626508-line-33">
    <rect x="0" y="806.7" width="1464" height="24.65"/>
            </clipPath>
<clipPath id="terminal-822626508-line-34">
    <rect x="0" y="831.1" width="1464" height="24.65"/>
            </clipPath>
    </defs>

    <rect fill="#292929" stroke="rgba(255,255,255,0.35)" stroke-width="1" x="1" y="1" width="1480" height="926.4" rx="8"/><text class="terminal-822626508-title" fill="#c5c8c6" text-anchor="middle" x="740" y="27">alloy&#160;06-clock-tree</text>
            <g transform="translate(26,22)">
            <circle cx="0" cy="0" r="7" fill="#ff5f57"/>
            <circle cx="22" cy="0" r="7" fill="#febc2e"/>
            <circle cx="44" cy="0" r="7" fill="#28c840"/>
            </g>
        
    <g transform="translate(9, 41)" clip-path="url(#terminal-822626508-clip-terminal)">
    <rect fill="#11151c" x="0" y="1.5" width="12.2" height="24.65" shape-rendering="crispEdges"/><rect fill="#11151c" x="12.2" y="1.5" width="12.2" height="24.65" shape-rendering="crispEdges"/><rect fill="#11151c" x="24.4" y="1.5" width="61" height="24.65" shape-rendering="crispEdges"/><rect fill="#11151c" x="85.4" y="1.5" width="12.2" height="24.65" shape-rendering="crispEdges"/><rect fill="#11151c" x="97.6" y="1.5" width="585.6" height="24.65" shape-rendering="crispEdges"/><rect fill="#11151c" x="683.2" y="1.5" width="73.2" height="24.65" shape-rendering="crispEdges"/><rect fill="#11151c" x="756.4" y="1.5" width="585.6" height="24.65" shape-rendering="crispEdges"/><rect fill="#11151c" x="1342" y="1.5" width="12.2" height="24.65" shape-rendering="crispEdges"/><rect fill="#11151c" x="1354.2" y="1.5" width="0" height="24.65" shape-rendering="crispEdges"/><rect fill="#11151c" x="1354.2" y="1.5" width="97.6" height="24.65" shape-rendering="crispEdges"/><rect fill="#11151c" x="1451.8" y="1.5" width="12.2" height="24.65" shape-rendering="crispEdges"/><rect fill="#0b0d10" x="0" y="25.9" width="12.2" height="24.65" shape-rendering="crispEdges"/><rect fill="#0b0d10" x="12.2" y="25.9" width="134.2" height="24.65" shape-rendering="crispEdges"/><rect fill="#0b0d10" x="146.4" y="25.9" width="195.2" height="24.65" shape-rendering="crispEdges"/><rect fill="#0b0d10" x="341.6" y="25.9" width="1110.2" height="24.65" shape-rendering="crispEdges"/><rect fill="#0b0d10" x="1451.8" y="25.9" width="12.2" height="24.65" shape-rendering="crispEdges"/><rect fill="#0b0d10" x="0" y="50.3" width="12.2" height="24.65" shape-rendering="crispEdges"/><rect fill="#0b0d10" x="12.2" y="50.3" width="109.8" height="24.65" shape-rendering="crispEdges"/><rect fill="#0b0d10" x="122" y="50.3" width="109.8" height="24.65" shape-rendering="crispEdges"/><rect fill="#0b0d10" x="231.8" y="50.3" width="1220" height="24.65" shape-rendering="crispEdges"/><rect fill="#0b0d10" x="1451.8" y="50.3" width="12.2" height="24.65" shape-rendering="crispEdges"/><rect fill="#0b0d10" x="0" y="74.7" width="12.2" height="24.65" shape-rendering="crispEdges"/><rect fill="#0b0d10" x="12.2" y="74.7" width="183" height="24.65" shape-rendering="crispEdges"/><rect fill="#0b0d10" x="195.2" y="74.7" width="1256.6" height="24.65" shape-rendering="crispEdges"/><rect fill="#0b0d10" x="1451.8" y="74.7" width="12.2" height="24.65" shape-rendering="crispEdges"/><rect fill="#0b0d10" x="0" y="99.1" width="12.2" height="24.65" shape-rendering="crispEdges"/><rect fill="#0b0d10" x="12.2" y="99.1" width="244" height="24.65" shape-rendering="crispEdges"/><rect fill="#0b0d10" x="256.2" y="99.1" width="1195.6" height="24.65" shape-rendering="crispEdges"/><rect fill="#0b0d10" x="1451.8" y="99.1" width="12.2" height="24.65" shape-rendering="crispEdges"/><rect fill="#0b0d10" x="0" y="123.5" width="12.2" height="24.65" shape-rendering="crispEdges"/><rect fill="#0b0d10" x="12.2" y="123.5" width="305" height="24.65" shape-rendering="crispEdges"/><rect fill="#0b0d10" x="317.2" y="123.5" width="1134.6" height="24.65" shape-rendering="crispEdges"/><rect fill="#0b0d10" x="1451.8" y="123.5" width="12.2" height="24.65" shape-rendering="crispEdges"/><rect fill="#0b0d10" x="0" y="147.9" width="12.2" height="24.65" shape-rendering="crispEdges"/><rect fill="#0b0d10" x="12.2" y="147.9" width="305" height="24.65" shape-rendering="crispEdges"/><rect fill="#0b0d10" x="317.2" y="147.9" width="1134.6" height="24.65" shape-rendering="crispEdges"/><rect fill="#0b0d10" x="1451.8" y="147.9" width="12.2" height="24.65" shape-rendering="crispEdges"/><rect fill="#0b0d10" x="0" y="172.3" width="12.2" height="24.65" shape-rendering="crispEdges"/><rect fill="#0b0d10" x="12.2" y="172.3" width="329.4" height="24.65" shape-rendering="crispEdges"/><rect fill="#0b0d10" x="341.6" y="172.3" width="1110.2" height="24.65" shape-rendering="crispEdges"/><rect fill="#0b0d10" x="1451.8" y="172.3" width="12.2" height="24.65" shape-rendering="crispEdges"/><rect fill="#0b0d10" x="0" y="196.7" width="12.2" height="24.65" shape-rendering="crispEdges"/><rect fill="#0b0d10" x="12.2" y="196.7" width="329.4" height="24.65" shape-rendering="crispEdges"/><rect fill="#0b0d10" x="341.6" y="196.7" width="1110.2" height="24.65" shape-rendering="crispEdges"/><rect fill="#0b0d10" x="1451.8" y="196.7" width="12.2" height="24.65" shape-rendering="crispEdges"/><rect fill="#0b0d10" x="0" y="221.1" width="12.2" height="24.65" shape-rendering="crispEdges"/><rect fill="#0b0d10" x="12.2" y="221.1" width="170.8" height="24.65" shape-rendering="crispEdges"/><rect fill="#0b0d10" x="183" y="221.1" width="1268.8" height="24.65" shape-rendering="crispEdges"/><rect fill="#0b0d10" x="1451.8" y="221.1" width="12.2" height="24.65" shape-rendering="crispEdges"/><rect fill="#0b0d10" x="0" y="245.5" width="12.2" height="24.65" shape-rendering="crispEdges"/><rect fill="#0b0d10" x="12.2" y="245.5" width="1439.6" height="24.65" shape-rendering="crispEdges"/><rect fill="#0b0d10" x="1451.8" y="245.5" width="12.2" height="24.65" shape-rendering="crispEdges"/><rect fill="#0b0d10" x="0" y="269.9" width="12.2" height="24.65" shape-rendering="crispEdges"/><rect fill="#0b0d10" x="12.2" y="269.9" width="1439.6" height="24.65" shape-rendering="crispEdges"/><rect fill="#0b0d10" x="1451.8" y="269.9" width="12.2" height="24.65" shape-rendering="crispEdges"/><rect fill="#0b0d10" x="0" y="294.3" width="12.2" height="24.65" shape-rendering="crispEdges"/><rect fill="#0b0d10" x="12.2" y="294.3" width="1439.6" height="24.65" shape-rendering="crispEdges"/><rect fill="#0b0d10" x="1451.8" y="294.3" width="12.2" height="24.65" shape-rendering="crispEdges"/><rect fill="#0b0d10" x="0" y="318.7" width="12.2" height="24.65" shape-rendering="crispEdges"/><rect fill="#0b0d10" x="12.2" y="318.7" width="1439.6" height="24.65" shape-rendering="crispEdges"/><rect fill="#0b0d10" x="1451.8" y="318.7" width="12.2" height="24.65" shape-rendering="crispEdges"/><rect fill="#0b0d10" x="0" y="343.1" width="12.2" height="24.65" shape-rendering="crispEdges"/><rect fill="#0b0d10" x="12.2" y="343.1" width="1439.6" height="24.65" shape-rendering="crispEdges"/><rect fill="#0b0d10" x="1451.8" y="343.1" width="12.2" height="24.65" shape-rendering="crispEdges"/><rect fill="#0b0d10" x="0" y="367.5" width="12.2" height="24.65" shape-rendering="crispEdges"/><rect fill="#0b0d10" x="12.2" y="367.5" width="1439.6" height="24.65" shape-rendering="crispEdges"/><rect fill="#0b0d10" x="1451.8" y="367.5" width="12.2" height="24.65" shape-rendering="crispEdges"/><rect fill="#0b0d10" x="0" y="391.9" width="12.2" height="24.65" shape-rendering="crispEdges"/><rect fill="#0b0d10" x="12.2" y="391.9" width="1439.6" height="24.65" shape-rendering="crispEdges"/><rect fill="#0b0d10" x="1451.8" y="391.9" width="12.2" height="24.65" shape-rendering="crispEdges"/><rect fill="#0b0d10" x="0" y="416.3" width="12.2" height="24.65" shape-rendering="crispEdges"/><rect fill="#0b0d10" x="12.2" y="416.3" width="1439.6" height="24.65" shape-rendering="crispEdges"/><rect fill="#0b0d10" x="1451.8" y="416.3" width="12.2" height="24.65" shape-rendering="crispEdges"/><rect fill="#0b0d10" x="0" y="440.7" width="12.2" height="24.65" shape-rendering="crispEdges"/><rect fill="#0b0d10" x="12.2" y="440.7" width="1439.6" height="24.65" shape-rendering="crispEdges"/><rect fill="#0b0d10" x="1451.8" y="440.7" width="12.2" height="24.65" shape-rendering="crispEdges"/><rect fill="#0b0d10" x="0" y="465.1" width="12.2" height="24.65" shape-rendering="crispEdges"/><rect fill="#0b0d10" x="12.2" y="465.1" width="1439.6" height="24.65" shape-rendering="crispEdges"/><rect fill="#0b0d10" x="1451.8" y="465.1" width="12.2" height="24.65" shape-rendering="crispEdges"/><rect fill="#0b0d10" x="0" y="489.5" width="12.2" height="24.65" shape-rendering="crispEdges"/><rect fill="#0b0d10" x="12.2" y="489.5" width="1439.6" height="24.65" shape-rendering="crispEdges"/><rect fill="#0b0d10" x="1451.8" y="489.5" width="12.2" height="24.65" shape-rendering="crispEdges"/><rect fill="#0b0d10" x="0" y="513.9" width="12.2" height="24.65" shape-rendering="crispEdges"/><rect fill="#0b0d10" x="12.2" y="513.9" width="1439.6" height="24.65" shape-rendering="crispEdges"/><rect fill="#0b0d10" x="1451.8" y="513.9" width="12.2" height="24.65" shape-rendering="crispEdges"/><rect fill="#0b0d10" x="0" y="538.3" width="12.2" height="24.65" shape-rendering="crispEdges"/><rect fill="#0b0d10" x="12.2" y="538.3" width="1439.6" height="24.65" shape-rendering="crispEdges"/><rect fill="#0b0d10" x="1451.8" y="538.3" width="12.2" height="24.65" shape-rendering="crispEdges"/><rect fill="#0b0d10" x="0" y="562.7" width="12.2" height="24.65" shape-rendering="crispEdges"/><rect fill="#0b0d10" x="12.2" y="562.7" width="1439.6" height="24.65" shape-rendering="crispEdges"/><rect fill="#0b0d10" x="1451.8" y="562.7" width="12.2" height="24.65" shape-rendering="crispEdges"/><rect fill="#0b0d10" x="0" y="587.1" width="12.2" height="24.65" shape-rendering="crispEdges"/><rect fill="#0b0d10" x="12.2" y="587.1" width="1439.6" height="24.65" shape-rendering="crispEdges"/><rect fill="#0b0d10" x="1451.8" y="587.1" width="12.2" height="24.65" shape-rendering="crispEdges"/><rect fill="#0b0d10" x="0" y="611.5" width="12.2" height="24.65" shape-rendering="crispEdges"/><rect fill="#0b0d10" x="12.2" y="611.5" width="1439.6" height="24.65" shape-rendering="crispEdges"/><rect fill="#0b0d10" x="1451.8" y="611.5" width="12.2" height="24.65" shape-rendering="crispEdges"/><rect fill="#0b0d10" x="0" y="635.9" width="12.2" height="24.65" shape-rendering="crispEdges"/><rect fill="#0b0d10" x="12.2" y="635.9" width="1439.6" height="24.65" shape-rendering="crispEdges"/><rect fill="#0b0d10" x="1451.8" y="635.9" width="12.2" height="24.65" shape-rendering="crispEdges"/><rect fill="#0b0d10" x="0" y="660.3" width="12.2" height="24.65" shape-rendering="crispEdges"/><rect fill="#0b0d10" x="12.2" y="660.3" width="1439.6" height="24.65" shape-rendering="crispEdges"/><rect fill="#0b0d10" x="1451.8" y="660.3" width="12.2" height="24.65" shape-rendering="crispEdges"/><rect fill="#0b0d10" x="0" y="684.7" width="12.2" height="24.65" shape-rendering="crispEdges"/><rect fill="#0b0d10" x="12.2" y="684.7" width="1439.6" height="24.65" shape-rendering="crispEdges"/><rect fill="#0b0d10" x="1451.8" y="684.7" width="12.2" height="24.65" shape-rendering="crispEdges"/><rect fill="#0b0d10" x="0" y="709.1" width="12.2" height="24.65" shape-rendering="crispEdges"/><rect fill="#0b0d10" x="12.2" y="709.1" width="1439.6" height="24.65" shape-rendering="crispEdges"/><rect fill="#0b0d10" x="1451.8" y="709.1" width="12.2" height="24.65" shape-rendering="crispEdges"/><rect fill="#0b0d10" x="0" y="733.5" width="12.2" height="24.65" shape-rendering="crispEdges"/><rect fill="#0b0d10" x="12.2" y="733.5" width="1439.6" height="24.65" shape-rendering="crispEdges"/><rect fill="#0b0d10" x="1451.8" y="733.5" width="12.2" height="24.65" shape-rendering="crispEdges"/><rect fill="#0b0d10" x="0" y="757.9" width="12.2" height="24.65" shape-rendering="crispEdges"/><rect fill="#0b0d10" x="12.2" y="757.9" width="1439.6" height="24.65" shape-rendering="crispEdges"/><rect fill="#0b0d10" x="1451.8" y="757.9" width="12.2" height="24.65" shape-rendering="crispEdges"/><rect fill="#0b0d10" x="0" y="782.3" width="12.2" height="24.65" shape-rendering="crispEdges"/><rect fill="#0b0d10" x="12.2" y="782.3" width="1439.6" height="24.65" shape-rendering="crispEdges"/><rect fill="#0b0d10" x="1451.8" y="782.3" width="12.2" height="24.65" shape-rendering="crispEdges"/><rect fill="#0b0d10" x="0" y="806.7" width="12.2" height="24.65" shape-rendering="crispEdges"/><rect fill="#0b0d10" x="12.2" y="806.7" width="1439.6" height="24.65" shape-rendering="crispEdges"/><rect fill="#0b0d10" x="1451.8" y="806.7" width="12.2" height="24.65" shape-rendering="crispEdges"/><rect fill="#0b0d10" x="0" y="831.1" width="12.2" height="24.65" shape-rendering="crispEdges"/><rect fill="#0b0d10" x="12.2" y="831.1" width="1439.6" height="24.65" shape-rendering="crispEdges"/><rect fill="#0b0d10" x="1451.8" y="831.1" width="12.2" height="24.65" shape-rendering="crispEdges"/><rect fill="#11151c" x="0" y="855.5" width="61" height="24.65" shape-rendering="crispEdges"/><rect fill="#11151c" x="61" y="855.5" width="73.2" height="24.65" shape-rendering="crispEdges"/><rect fill="#11151c" x="134.2" y="855.5" width="48.8" height="24.65" shape-rendering="crispEdges"/><rect fill="#11151c" x="183" y="855.5" width="158.6" height="24.65" shape-rendering="crispEdges"/><rect fill="#11151c" x="341.6" y="855.5" width="48.8" height="24.65" shape-rendering="crispEdges"/><rect fill="#11151c" x="390.4" y="855.5" width="97.6" height="24.65" shape-rendering="crispEdges"/><rect fill="#11151c" x="488" y="855.5" width="829.6" height="24.65" shape-rendering="crispEdges"/><rect fill="#11151c" x="1317.6" y="855.5" width="12.2" height="24.65" shape-rendering="crispEdges"/><rect fill="#11151c" x="1329.8" y="855.5" width="24.4" height="24.65" shape-rendering="crispEdges"/><rect fill="#11151c" x="1354.2" y="855.5" width="97.6" height="24.65" shape-rendering="crispEdges"/><rect fill="#11151c" x="1451.8" y="855.5" width="12.2" height="24.65" shape-rendering="crispEdges"/>
    <g class="terminal-822626508-matrix">
    <text class="terminal-822626508-r2" x="12.2" y="20" textLength="12.2" clip-path="url(#terminal-822626508-line-0)">⭘</text><text class="terminal-822626508-r2" x="683.2" y="20" textLength="73.2" clip-path="url(#terminal-822626508-line-0)">TuiApp</text><text class="terminal-822626508-r1" x="1464" y="20" textLength="12.2" clip-path="url(#terminal-822626508-line-0)">
</text><text class="terminal-822626508-r3" x="12.2" y="44.4" textLength="134.2" clip-path="url(#terminal-822626508-line-1)">Clock&#160;graph</text><text class="terminal-822626508-r4" x="146.4" y="44.4" textLength="195.2" clip-path="url(#terminal-822626508-line-1)">&#160;for&#160;stm32g071rb</text><text class="terminal-822626508-r1" x="1464" y="44.4" textLength="12.2" clip-path="url(#terminal-822626508-line-1)">
</text><text class="terminal-822626508-r4" x="12.2" y="68.8" textLength="109.8" clip-path="url(#terminal-822626508-line-2)">profile:&#160;</text><text class="terminal-822626508-r5" x="122" y="68.8" textLength="109.8" clip-path="url(#terminal-822626508-line-2)">pll_64mhz</text><text class="terminal-822626508-r1" x="1464" y="68.8" textLength="12.2" clip-path="url(#terminal-822626508-line-2)">
</text><text class="terminal-822626508-r4" x="12.2" y="93.2" textLength="183" clip-path="url(#terminal-822626508-line-3)">HSI&#160;→&#160;16.00&#160;MHz</text><text class="terminal-822626508-r1" x="1464" y="93.2" textLength="12.2" clip-path="url(#terminal-822626508-line-3)">
</text><text class="terminal-822626508-r4" x="12.2" y="117.6" textLength="244" clip-path="url(#terminal-822626508-line-4)">&#160;&#160;├─&#160;PLL&#160;→&#160;64.00&#160;MHz</text><text class="terminal-822626508-r1" x="1464" y="117.6" textLength="12.2" clip-path="url(#terminal-822626508-line-4)">
</text><text class="terminal-822626508-r4" x="12.2" y="142" textLength="305" clip-path="url(#terminal-822626508-line-5)">&#160;&#160;&#160;&#160;├─&#160;SYSCLK&#160;→&#160;64.00&#160;MHz</text><text class="terminal-822626508-r1" x="1464" y="142" textLength="12.2" clip-path="url(#terminal-822626508-line-5)">
</text><text class="terminal-822626508-r4" x="12.2" y="166.4" textLength="305" clip-path="url(#terminal-822626508-line-6)">&#160;&#160;&#160;&#160;&#160;&#160;├─&#160;HCLK&#160;→&#160;64.00&#160;MHz</text><text class="terminal-822626508-r1" x="1464" y="166.4" textLength="12.2" clip-path="url(#terminal-822626508-line-6)">
</text><text class="terminal-822626508-r4" x="12.2" y="190.8" textLength="329.4" clip-path="url(#terminal-822626508-line-7)">&#160;&#160;&#160;&#160;&#160;&#160;&#160;&#160;├─&#160;APB1&#160;→&#160;64.00&#160;MHz</text><text class="terminal-822626508-r1" x="1464" y="190.8" textLength="12.2" clip-path="url(#terminal-822626508-line-7)">
</text><text class="terminal-822626508-r4" x="12.2" y="215.2" textLength="329.4" clip-path="url(#terminal-822626508-line-8)">&#160;&#160;&#160;&#160;&#160;&#160;&#160;&#160;├─&#160;APB2&#160;→&#160;64.00&#160;MHz</text><text class="terminal-822626508-r1" x="1464" y="215.2" textLength="12.2" clip-path="url(#terminal-822626508-line-8)">
</text><text class="terminal-822626508-r4" x="12.2" y="239.6" textLength="170.8" clip-path="url(#terminal-822626508-line-9)">HSE&#160;→&#160;8.00&#160;MHz</text><text class="terminal-822626508-r1" x="1464" y="239.6" textLength="12.2" clip-path="url(#terminal-822626508-line-9)">
</text><text class="terminal-822626508-r1" x="1464" y="264" textLength="12.2" clip-path="url(#terminal-822626508-line-10)">
</text><text class="terminal-822626508-r1" x="1464" y="288.4" textLength="12.2" clip-path="url(#terminal-822626508-line-11)">
</text><text class="terminal-822626508-r1" x="1464" y="312.8" textLength="12.2" clip-path="url(#terminal-822626508-line-12)">
</text><text class="terminal-822626508-r1" x="1464" y="337.2" textLength="12.2" clip-path="url(#terminal-822626508-line-13)">
</text><text class="terminal-822626508-r1" x="1464" y="361.6" textLength="12.2" clip-path="url(#terminal-822626508-line-14)">
</text><text class="terminal-822626508-r1" x="1464" y="386" textLength="12.2" clip-path="url(#terminal-822626508-line-15)">
</text><text class="terminal-822626508-r1" x="1464" y="410.4" textLength="12.2" clip-path="url(#terminal-822626508-line-16)">
</text><text class="terminal-822626508-r1" x="1464" y="434.8" textLength="12.2" clip-path="url(#terminal-822626508-line-17)">
</text><text class="terminal-822626508-r1" x="1464" y="459.2" textLength="12.2" clip-path="url(#terminal-822626508-line-18)">
</text><text class="terminal-822626508-r1" x="1464" y="483.6" textLength="12.2" clip-path="url(#terminal-822626508-line-19)">
</text><text class="terminal-822626508-r1" x="1464" y="508" textLength="12.2" clip-path="url(#terminal-822626508-line-20)">
</text><text class="terminal-822626508-r1" x="1464" y="532.4" textLength="12.2" clip-path="url(#terminal-822626508-line-21)">
</text><text class="terminal-822626508-r1" x="1464" y="556.8" textLength="12.2" clip-path="url(#terminal-822626508-line-22)">
</text><text class="terminal-822626508-r1" x="1464" y="581.2" textLength="12.2" clip-path="url(#terminal-822626508-line-23)">
</text><text class="terminal-822626508-r1" x="1464" y="605.6" textLength="12.2" clip-path="url(#terminal-822626508-line-24)">
</text><text class="terminal-822626508-r1" x="1464" y="630" textLength="12.2" clip-path="url(#terminal-822626508-line-25)">
</text><text class="terminal-822626508-r1" x="1464" y="654.4" textLength="12.2" clip-path="url(#terminal-822626508-line-26)">
</text><text class="terminal-822626508-r1" x="1464" y="678.8" textLength="12.2" clip-path="url(#terminal-822626508-line-27)">
</text><text class="terminal-822626508-r1" x="1464" y="703.2" textLength="12.2" clip-path="url(#terminal-822626508-line-28)">
</text><text class="terminal-822626508-r1" x="1464" y="727.6" textLength="12.2" clip-path="url(#terminal-822626508-line-29)">
</text><text class="terminal-822626508-r1" x="1464" y="752" textLength="12.2" clip-path="url(#terminal-822626508-line-30)">
</text><text class="terminal-822626508-r1" x="1464" y="776.4" textLength="12.2" clip-path="url(#terminal-822626508-line-31)">
</text><text class="terminal-822626508-r1" x="1464" y="800.8" textLength="12.2" clip-path="url(#terminal-822626508-line-32)">
</text><text class="terminal-822626508-r1" x="1464" y="825.2" textLength="12.2" clip-path="url(#terminal-822626508-line-33)">
</text><text class="terminal-822626508-r1" x="1464" y="849.6" textLength="12.2" clip-path="url(#terminal-822626508-line-34)">
</text><text class="terminal-822626508-r6" x="0" y="874" textLength="61" clip-path="url(#terminal-822626508-line-35)">&#160;esc&#160;</text><text class="terminal-822626508-r7" x="61" y="874" textLength="73.2" clip-path="url(#terminal-822626508-line-35)">Close&#160;</text><text class="terminal-822626508-r6" x="134.2" y="874" textLength="48.8" clip-path="url(#terminal-822626508-line-35)">&#160;^s&#160;</text><text class="terminal-822626508-r7" x="183" y="874" textLength="158.6" clip-path="url(#terminal-822626508-line-35)">Save&#160;profile&#160;</text><text class="terminal-822626508-r6" x="341.6" y="874" textLength="48.8" clip-path="url(#terminal-822626508-line-35)">&#160;^p&#160;</text><text class="terminal-822626508-r7" x="390.4" y="874" textLength="97.6" clip-path="url(#terminal-822626508-line-35)">Palette&#160;</text><text class="terminal-822626508-r8" x="1317.6" y="874" textLength="12.2" clip-path="url(#terminal-822626508-line-35)">▏</text><text class="terminal-822626508-r6" x="1329.8" y="874" textLength="24.4" clip-path="url(#terminal-822626508-line-35)">^p</text><text class="terminal-822626508-r7" x="1354.2" y="874" textLength="97.6" clip-path="url(#terminal-822626508-line-35)">&#160;Palette</text>
    </g>
    </g>
</svg>
